<svg xmlns="http://www.w3.org/2000/svg" version="1.1" xmlns:xlink="http://www.w3.org/1999/xlink" xmlns:svgjs="http://svgjs.dev/svgjs" viewBox="0 0 800 800"><defs><linearGradient x1="50%" y1="0%" x2="50%" y2="100%" id="ffflurry-grad" gradientTransform="rotate(270)"><stop stop-color="#1d2734" stop-opacity="1" offset="0%"></stop><stop stop-color="hsl(1.4, 100%, 67%)" stop-opacity="1" offset="45%"></stop><stop stop-color="hsl(167, 52%, 78%)" stop-opacity="1" offset="100%"></stop></linearGradient></defs><rect width="100%" height="100%" fill="#1d2734"></rect><g fill="url(#ffflurry-grad)"><rect width="278" height="3" x="-71" y="123.5" rx="1.5" transform="rotate(139, 68, 125)" opacity="0.85"></rect><rect width="517" height="3" x="181.5" y="59.5" rx="1.5" transform="rotate(139, 440, 61)" opacity="0.40"></rect><rect width="191" height="3" x="381.5" y="740.5" rx="1.5" transform="rotate(139, 477, 742)" opacity="0.78"></rect><rect width="145" height="3" x="647.5" y="767.5" rx="1.5" transform="rotate(139, 720, 769)" opacity="0.97"></rect><rect width="604" height="3" x="77" y="756.5" rx="1.5" transform="rotate(139, 379, 758)" opacity="0.79"></rect><rect width="514" height="3" x="59" y="519.5" rx="1.5" transform="rotate(139, 316, 521)" opacity="0.75"></rect><rect width="127" height="3" x="491.5" y="683.5" rx="1.5" transform="rotate(139, 555, 685)" opacity="0.79"></rect><rect width="377" height="3" x="32.5" y="581.5" rx="1.5" transform="rotate(139, 221, 583)" opacity="0.96"></rect><rect width="537" height="3" x="415.5" y="40.5" rx="1.5" transform="rotate(139, 684, 42)" opacity="0.20"></rect><rect width="388" height="3" x="125" y="375.5" rx="1.5" transform="rotate(139, 319, 377)" opacity="0.70"></rect><rect width="279" height="3" x="-112.5" y="515.5" rx="1.5" transform="rotate(139, 27, 517)" opacity="0.86"></rect><rect width="561" height="3" x="-233.5" y="628.5" rx="1.5" transform="rotate(139, 47, 630)" opacity="0.56"></rect><rect width="180" height="3" x="603" y="528.5" rx="1.5" transform="rotate(139, 693, 530)" opacity="0.99"></rect><rect width="146" height="3" x="520" y="249.5" rx="1.5" transform="rotate(139, 593, 251)" opacity="0.36"></rect><rect width="726" height="3" x="314" y="375.5" rx="1.5" transform="rotate(139, 677, 377)" opacity="0.52"></rect><rect width="228" height="3" x="369" y="620.5" rx="1.5" transform="rotate(139, 483, 622)" opacity="0.15"></rect><rect width="70" height="3" x="369" y="645.5" rx="1.5" transform="rotate(139, 404, 647)" opacity="0.93"></rect><rect width="600" height="3" x="0" y="616.5" rx="1.5" transform="rotate(139, 300, 618)" opacity="0.12"></rect><rect width="412" height="3" x="-150" y="771.5" rx="1.5" transform="rotate(139, 56, 773)" opacity="0.22"></rect><rect width="223" height="3" x="497.5" y="88.5" rx="1.5" transform="rotate(139, 609, 90)" opacity="0.47"></rect><rect width="101" height="3" x="-19.5" y="709.5" rx="1.5" transform="rotate(139, 31, 711)" opacity="0.95"></rect><rect width="220" height="3" x="293" y="281.5" rx="1.5" transform="rotate(139, 403, 283)" opacity="0.51"></rect><rect width="494" height="3" x="122" y="139.5" rx="1.5" transform="rotate(139, 369, 141)" opacity="0.66"></rect><rect width="205" height="3" x="152.5" y="704.5" rx="1.5" transform="rotate(139, 255, 706)" opacity="0.74"></rect><rect width="320" height="3" x="330" y="262.5" rx="1.5" transform="rotate(139, 490, 264)" opacity="0.53"></rect><rect width="285" height="3" x="457.5" y="568.5" rx="1.5" transform="rotate(139, 600, 570)" opacity="0.52"></rect><rect width="363" height="3" x="571.5" y="218.5" rx="1.5" transform="rotate(139, 753, 220)" opacity="0.13"></rect><rect width="474" height="3" x="-179" y="227.5" rx="1.5" transform="rotate(139, 58, 229)" opacity="0.88"></rect><rect width="171" height="3" x="46.5" y="613.5" rx="1.5" transform="rotate(139, 132, 615)" opacity="0.13"></rect><rect width="399" height="3" x="569.5" y="701.5" rx="1.5" transform="rotate(139, 769, 703)" opacity="0.88"></rect><rect width="493" height="3" x="382.5" y="637.5" rx="1.5" transform="rotate(139, 629, 639)" opacity="0.18"></rect><rect width="561" height="3" x="-120.5" y="228.5" rx="1.5" transform="rotate(139, 160, 230)" opacity="0.66"></rect><rect width="720" height="3" x="283" y="177.5" rx="1.5" transform="rotate(139, 643, 179)" opacity="0.68"></rect><rect width="134" height="3" x="702" y="567.5" rx="1.5" transform="rotate(139, 769, 569)" opacity="0.91"></rect><rect width="548" height="3" x="39" y="254.5" rx="1.5" transform="rotate(139, 313, 256)" opacity="0.64"></rect><rect width="257" height="3" x="550.5" y="462.5" rx="1.5" transform="rotate(139, 679, 464)" opacity="0.61"></rect><rect width="480" height="3" x="-78" y="514.5" rx="1.5" transform="rotate(139, 162, 516)" opacity="0.50"></rect><rect width="283" height="3" x="436.5" y="502.5" rx="1.5" transform="rotate(139, 578, 504)" opacity="0.78"></rect><rect width="413" height="3" x="379.5" y="762.5" rx="1.5" transform="rotate(139, 586, 764)" opacity="0.08"></rect><rect width="523" height="3" x="244.5" y="358.5" rx="1.5" transform="rotate(139, 506, 360)" opacity="0.12"></rect><rect width="570" height="3" x="414" y="603.5" rx="1.5" transform="rotate(139, 699, 605)" opacity="0.54"></rect><rect width="486" height="3" x="-91" y="36.5" rx="1.5" transform="rotate(139, 152, 38)" opacity="0.08"></rect><rect width="679" height="3" x="-126.5" y="407.5" rx="1.5" transform="rotate(139, 213, 409)" opacity="0.83"></rect><rect width="149" height="3" x="209.5" y="51.5" rx="1.5" transform="rotate(139, 284, 53)" opacity="0.81"></rect><rect width="189" height="3" x="-49.5" y="417.5" rx="1.5" transform="rotate(139, 45, 419)" opacity="0.32"></rect><rect width="352" height="3" x="7" y="762.5" rx="1.5" transform="rotate(139, 183, 764)" opacity="0.39"></rect><rect width="160" height="3" x="167" y="484.5" rx="1.5" transform="rotate(139, 247, 486)" opacity="0.17"></rect><rect width="154" height="3" x="466" y="618.5" rx="1.5" transform="rotate(139, 543, 620)" opacity="0.30"></rect><rect width="333" height="3" x="16.5" y="125.5" rx="1.5" transform="rotate(139, 183, 127)" opacity="0.59"></rect><rect width="94" height="3" x="473" y="445.5" rx="1.5" transform="rotate(139, 520, 447)" opacity="0.89"></rect><rect width="72" height="3" x="238" y="771.5" rx="1.5" transform="rotate(139, 274, 773)" opacity="0.68"></rect><rect width="528" height="3" x="499" y="429.5" rx="1.5" transform="rotate(139, 763, 431)" opacity="0.69"></rect><rect width="607" height="3" x="290.5" y="415.5" rx="1.5" transform="rotate(139, 594, 417)" opacity="1.00"></rect><rect width="247" height="3" x="416.5" y="36.5" rx="1.5" transform="rotate(139, 540, 38)" opacity="0.63"></rect><rect width="42" height="3" x="311" y="696.5" rx="1.5" transform="rotate(139, 332, 698)" opacity="0.80"></rect><rect width="465" height="3" x="19.5" y="196.5" rx="1.5" transform="rotate(139, 252, 198)" opacity="0.42"></rect><rect width="332" height="3" x="210" y="470.5" rx="1.5" transform="rotate(139, 376, 472)" opacity="0.60"></rect><rect width="410" height="3" x="304" y="167.5" rx="1.5" transform="rotate(139, 509, 169)" opacity="0.35"></rect><rect width="395" height="3" x="-141.5" y="330.5" rx="1.5" transform="rotate(139, 56, 332)" opacity="0.86"></rect><rect width="359" height="3" x="-92.5" y="531.5" rx="1.5" transform="rotate(139, 87, 533)" opacity="0.90"></rect><rect width="339" height="3" x="18.5" y="673.5" rx="1.5" transform="rotate(139, 188, 675)" opacity="0.31"></rect><rect width="148" height="3" x="520" y="329.5" rx="1.5" transform="rotate(139, 594, 331)" opacity="0.43"></rect><rect width="61" height="3" x="729.5" y="321.5" rx="1.5" transform="rotate(139, 760, 323)" opacity="0.62"></rect><rect width="590" height="3" x="-173" y="430.5" rx="1.5" transform="rotate(139, 122, 432)" opacity="0.79"></rect><rect width="79" height="3" x="383.5" y="386.5" rx="1.5" transform="rotate(139, 423, 388)" opacity="0.13"></rect><rect width="393" height="3" x="295.5" y="536.5" rx="1.5" transform="rotate(139, 492, 538)" opacity="0.85"></rect><rect width="663" height="3" x="-143.5" y="322.5" rx="1.5" transform="rotate(139, 188, 324)" opacity="0.44"></rect><rect width="186" height="3" x="673" y="47.5" rx="1.5" transform="rotate(139, 766, 49)" opacity="0.21"></rect><rect width="271" height="3" x="317.5" y="468.5" rx="1.5" transform="rotate(139, 453, 470)" opacity="0.30"></rect><rect width="383" height="3" x="495.5" y="278.5" rx="1.5" transform="rotate(139, 687, 280)" opacity="0.98"></rect><rect width="340" height="3" x="-129" y="42.5" rx="1.5" transform="rotate(139, 41, 44)" opacity="0.72"></rect><rect width="300" height="3" x="-35" y="722.5" rx="1.5" transform="rotate(139, 115, 724)" opacity="0.98"></rect><rect width="143" height="3" x="630.5" y="674.5" rx="1.5" transform="rotate(139, 702, 676)" opacity="0.16"></rect><rect width="119" height="3" x="344.5" y="559.5" rx="1.5" transform="rotate(139, 404, 561)" opacity="0.99"></rect><rect width="465" height="3" x="508.5" y="133.5" rx="1.5" transform="rotate(139, 741, 135)" opacity="0.68"></rect><rect width="455" height="3" x="415.5" y="716.5" rx="1.5" transform="rotate(139, 643, 718)" opacity="0.50"></rect></g></svg>