<svg xmlns="http://www.w3.org/2000/svg" version="1.1" xmlns:xlink="http://www.w3.org/1999/xlink" xmlns:svgjs="http://svgjs.dev/svgjs" viewBox="0 0 640 800" opacity="0.23" transform="rotate(90)"><defs><linearGradient x1="50%" y1="0%" x2="50%" y2="100%" id="ssscribble-grad"><stop stop-color="hsl(206, 75%, 49%)" stop-opacity="1" offset="0%"></stop><stop stop-color="hsl(331, 90%, 56%)" stop-opacity="1" offset="100%"></stop></linearGradient></defs><g fill="none" stroke-width="2.25" stroke="url(#ssscribble-grad)" stroke-linecap="round"><path d="M1515.45 325.68C1476.36 343.72 1421.69 363.45 1359.17 384.82 1297.32 406.23 1244.3 429.36 1206.85 454.23 1189.72 479.2 1194.36 505.98 1219.4 534.56 1261.68 563.25 1314.52 593.69 1370.62 625.78 1423.44 657.74 1465.22 691.04 1490.72 725.33 1497.27 758.84 1483.34 792.63 1450.62 826.08 1402.68 857.57 1344.66 887.56 1282.75 915.17 1222.98 939.27 1171.35 959.65 1132.45 975.4 1106.44 989.01 1157.06 979.97 1216.73 958.09 1260.62 939.24 1300.72 917.57 1332.76 894.74 1358.13 865.44 1317.6 841.78 1256.78 858.64 1205.11 884.32 1149.54 920.79 1093.67 967.26 1040.17 1020.99 992.5 1079.99 952.85 1140.78 922.52 1198.46 902.55 1249.87 892.8 1290.9 893.09 1318.09 901.82 1329.58 917.15 1324.29 938.27 1303.98 962.06 1270.45 986.39 1227.74 1010.65 1182.76 1031.79 1140.27 1048.43 1106.66 1060.6 1088.42 1066.39 1088.56 1065.54 1109.28 1058.56 1149.83 1045.01 1206.89 1025.54 1274.79 1000.68 1345.29 971.24 1410.56 938.23 1462.24 901.86 1493.53 863.61 1500.61 824.43 1482.54 784.06 1443.36 744.14 1388.84 705.28 1328.15 666.83 1273.05 630.23 1232.5 595.71 1214.8 562.44 1224.9 531.46 1262.22 502.71 1322.12 475.4 1395.27 450.15 1470.17 426.71 1534.19 404.52 1576.24 383.79 1589.04 364.22 1570.12 345.54 1523.88 327.63 1458.56 310.24 1386.95 293.37 1324.35 276.68 1282.72 259.97 1271.3 243.49 1293.58 226.77 1345.48 209.68 1417.23 192.65 1494.5 175.14 1561.55 157.09 1604.18 139.05 1613.45 120.69 1587.19 102.08 1531.38 83.53 1457.67 64.85 1381.03 46.18 1316.65 27.74 1276.92 9.54 1268.89 -8.18 1293 -25.4 1344.31 -41.83 1411.34 -57.17 1480.47 -78.14 1556.97 -109.73 1531.69 -119.08 1437.58 -123.07 1362.09 -124.48 1292.27 -123.23 1238.74 -120.74 1209.04 -115.79 1206.53 -108.61 1229.7 -101.03 1274.05 -91.99 1330.31 -82.09 1388.36 -69.29 1456.78 -54.94 1458.17 -58.7 1387.83 -67.98 1322.15 -82.72 1252.17 -103.54 1185.91 -130.51 1129.85 -163.63 1089.89 -202.63 1068.82 -246.11 1067.56 -293.59 1084.1 -343.67 1114.44 -393.81 1154.8 -442.9 1198.22 -488.77 1238.9 -528.86 1273.09 -561.8 1295.34 -585.75 1303.23 -599.64 1296.16 -602.76 1273.85 -594.93 1238.25 -577.78 1191.46 -552.03 1137.26 -519.83 1079.46 -485.26 1020.59 -450.4 964.98 -418.8 915.33 -394.88 872.94 -380.64 839.92 -378.63 816.62 -390.65 803.02 -416.55 798.35 -455.5 801.15 -505.01 811 -561.9 825.19 -621.89 841.81 -679.74 860.83 -730.96 879.09 -770.9 895.23 -800.01 915.21 -748.97 928.46 -681.35 920.77 -631.17 910.49 -584.12 896.25 -546.36 878.71 -523.82 858.31 -519.29 835.57 -534.43 811.2 -568.53 785.01 -618.11 758.07 -677.89 730.95 -740.95 702.87 -799.92 675.23 -847.49 648.4 -877.82 621.17 -886.91 595.1 -873.34 570.43 -839.46 545.62 -789.14 522.38 -729.1 500.81 -668.39 479.22 -614.63 459.36 -575.54 441.31 -557.4 423.27 -562.17 407.25 -588.73 393.2 -633.74 379.13 -690.09 366.97 -749.83 356.63 -827.39 341.74 -870.99 318.83 -825.73 309.54 -773.92 302.63 -713.12 295.84 -650.49 288.63 -592.9 279.59 -546.68 269.25 -516.33 256.91 -504.66 241.72 -511.8 223.57 -535.73 201.83 -573.59 176.44 -619.54 146.88 -667.73 112.84 -713.35 75.37 -750.06 33.84 -773.74 -11.27 -782.31 -57.88 -773.94 -106.2 -749.36 -154.85 -710.61 -201.1 -660.91 -244.49 -604.5 -283.08 -545.38 -314.63 -488.44 -338.25 -437.67 -352.46 -396 -356.98 -366.04 -351.3 -348.81 -335.75 -344.69 -312.93 -352.46 -283.66 -370.11 -250.61 -396.15 -218.63 -426.73 -189.72 -458.72 -167.69 -490.39 -156.84 -517.8 -158.73 -538.73 -175.31 -552.45 -206.84 -556.85 -252.17 -551.61 -308.86 -537.16 -372.03 -513.73 -437.37 -482.58 -499.04 -444.68 -550.69 -401.93 -587.93 -356.15 -606.75 -308.17 -605.76 -260.34 -585.25 -214.1 -547.98 -169.8 -500.51 -129.22 -448.67 -93 -400.45 -61.03 -364.8 -34.08 -347.12 -11.98 -351.94 5.45 -380.62 18.56 -430.6 27.96 -496.4 33.6 -569.13 36.62 -639.36 37.78 -696.95 36.58 -733.34 34.63 -743.34 32.55 -725.37 29.4 -683.58 26.95 -624.72 25.61 -559.42 24.09 -480.18 29.8 -480.66 37.48 -568 43.6 -644.09 51.52 -717.26 61.15 -773.87 71.09 -803.28 82.6 -799.7 95.58 -763.56 108.72 -702.76 123.18 -628.82 138.88 -556.92 154.64 -502.9 171.54 -477.54 189.59 -486.78 207.63 -529.4 226.6 -595.52 246.49 -670.99 266.42 -740.94 287.36 -790.16 309.37 -808.88 331.54 -793.91 354.92 -747.85 379.59 -679.97 404.56 -603.07 430.97 -531.61 458.89 -478.39 487.18 -452.5 517.03 -457.49 548.43 -490.94 580.08 -546.36 613.14 -611.86 647.4 -674.83 681.49 -724.55 716.32 -750.92 751.5 -749.31 785.6 -719.89 819.21 -666.86 851.69 -598.53 881.8 -524.62 909.66 -456.13 934.49 -402.26 955.56 -369.5 972.51 -361.17 984.7 -376.36 992.23 -411.93 994.47 -460.41 991.25 -513.45 983.77 -563.89 971.48 -602.81 954.98 -624.58 936.55 -626.53 916.06 -607.23 894.91 -568.93 875.97 -515.25 859.56 -452.07 847.48 -385.78 842.15 -321.76 844.01 -266.31 854.31 -223.49 873.83 -195.7 902.44 -184.1 939.81 -187.64 984.4 -205.01 1034.89 -232.2 1089.06 -265.12 1143.55 -301.16 1196.05 -334.86 1243.39 -362.77 1296.58 -388.5 1324.34 -368.79 1296.2 -325.04 1264.22 -284.68 1225.42 -238.73 1183.77 -189.52 1144.82 -137.95 1111.9 -87.09 1089.25 -38.61 1080.77 7.32 1087.79 48.53 1111.04 84.52 1149.42 115.63 1200.09 141.14 1258.94 161.49 1320.35 177.01 1378.79 188.3 1428.37 196.23 1473.08 201.84 1442.07 203.23 1374.66 202.77 1320.63 201.89 1267.62 202.32 1222.77 204.38 1193.03 206.33 1182.07 210.21 1192.19 216.13 1223.04 222.16 1270.99 230.27 1330.36 240.44 1393.68 250.72 1452.72 262.99 1499.54 277.22 1527.9 291.49 1533.59 307.64 1515.45 325.68Q1515.45 325.68 1515.45 325.68" opacity="0.31"></path><path d="M1454.5 551.89C1418.54 568.87 1368.29 586.56 1310.08 604.85 1250.99 623.08 1197.93 641.77 1156.94 660.74 1127.69 697.78 1172.19 734.01 1265.67 766.62 1367.01 794.48 1427.69 814.4 1421.93 823.12 1351.61 823.99 1241.72 812.2 1131.56 788.95 1056.05 765.07 1036.14 740.3 1069.8 724.21 1141.34 729.65 1218.35 760.53 1272.26 822.57 1286.62 910.32 1252.29 1015.75 1178.19 1120.99 1079.28 1201.55 977.4 1241.55 890.99 1229.2 817.22 1135.32 848.58 1033.44 902.47 1162.34 941.77 1343.6 913.06 1333.41 850.36 1182.35 794.78 1149.78 734.53 1209.78 673.68 1339.42 610.4 1469.06 550.52 1526.05 495.49 1475.55 440.88 1353.74 391.61 1239.4 347.69 1213.31 325.86 1244.18 305.26 1299.21 285.89 1369.09 266.54 1441.39 248.37 1503.01 231.38 1542.34 214.4 1552.05 198.81 1530.12 184.62 1481.06 170.45 1414.03 157.73 1341.13 146.48 1275.26 124.24 1206.57 108.32 1248.99 98.87 1367.26 89.85 1483.23 86.8 1517.48 88.46 1448.59 87.69 1315.03 87.62 1190.58 84.34 1137.5 71.2 1176.08 47.74 1274.06 9.63 1371.11 -44.14 1416.13 -114.09 1380.12 -197.84 1278.56 -285.92 1149.68 -372.8 1042.77 -446.98 989.96 -496.9 1000.66 -516.11 1058.17 -500.57 1130.8 -458.68 1192.22 -399.2 1213.79 -340.4 1188.52 -306.4 1121.1 -309.89 1026.47 -359.62 924.55 -448.89 827.73 -558.82 752.08 -660.65 701.76 -724.61 676.31 -732.39 671.33 -681.77 678.36 -552.62 704.22 -509.43 731.12 -662.34 719.78 -768.92 705.63 -823.42 684.05 -800.89 656.99 -763.26 643.03 -712.74 628.12 -655.35 612.43 -598.84 596.66 -549.45 580.25 -513.49 563.27 -496.18 546.29 -499.14 528.93 -521.6 511.16 -561.11 493.31 -612 474.9 -667.85 455.78 -769.77 416.68 -817.67 373.08 -790.87 323.18 -701.08 269.84 -584.36 208.17 -486.19 137.86 -441.2 65.7 -460.67 -11.22 -529.22 -87.64 -653.81 -179.75 -642.02 -231 -497 -175.78 -391.51 -126.21 -311.45 -82.12 -270.3 -63.3 -271.53 -86.62 -305.76 -154.81 -356.58 -260.74 -430.94 -427.85 -429.42 -481.39 -345.64 -353.34 -267.28 -287.13 -183.85 -284.03 -103.21 -359.33 -27.1 -486.67 37.63 -612.33 90.38 -675.83 132.87 -647.66 165.3 -545.33 190.86 -430.93 209.93 -381.19 226.71 -431.63 244 -560.71 259.02 -692.09 277.31 -744.53 300.21 -682.59 311.5 -620.09 324.14 -549.72 338.18 -484.39 352.21 -437.02 367.7 -415.93 384.68 -425.62 401.66 -464.94 419.94 -525.7 439.46 -596.29 458.95 -664.48 479.64 -716.97 501.42 -744.5 544.68 -711.72 591.58 -587.4 640.62 -452.47 687.38 -388.84 733.52 -429.59 776.08 -540.05 812.14 -650.53 840.03 -688.44 856.41 -630.99 862.52 -506.21 855.18 -376.19 834.84 -299.57 809.97 -304.26 780.68 -375.91 754.67 -469.52 744.16 -540.03 752.87 -548.28 787.83 -489.75 849.98 -382.31 935.6 -261.65 1034.99 -162.38 1130.32 -105.5 1206.95 -98.85 1248.29 -130.8 1247.24 -187.44 1205.01 -242.31 1134.88 -277.72 1065.06 -287.42 1018.29 -264.17 1017.56 -213.84 1071.84 -141.99 1169.74 -59.83 1284.11 22.91 1377.55 105.02 1419.14 177.13 1393.32 237.9 1314.32 290.8 1213.82 333.81 1137.13 370.01 1123.44 401.45 1181.34 430.41 1289.98 459.53 1349.19 473.64 1402.62 488.27 1443.83 503.58 1467.99 518.83 1471.81 534.91 1454.5 551.89Q1454.5 551.89 1454.5 551.89" opacity="0.30"></path><path d="M1392.46 472.43C1312.68 504.28 1202.8 529.37 1108.19 547.62 1065.81 565.52 1089.03 576.11 1164.23 579.56 1301.12 582.17 1298.66 577.88 1152.11 592.09 1051.95 619.41 985.44 663.42 966.05 727.04 994.44 805.43 1054.46 896.3 1123.31 990.05 1182.35 1070.58 1210.14 1128.32 1199.24 1150.7 1151.33 1135.72 1074.63 1086.7 983.83 1018.41 890.87 959.59 810.66 930.31 751.04 950.93 715.01 1024.91 702.28 1136.84 707.36 1254.85 727.6 1338.42 752.89 1359.82 776.51 1310.76 804.86 1172.12 797.31 1173.21 763.3 1357.39 731.95 1448.09 695.82 1453.58 657.5 1370.46 616.7 1249.71 576.36 1160.48 538.07 1160.28 499.25 1254.49 463.59 1388.79 431.74 1481.17 399.9 1473.52 372.63 1370.6 349.43 1237.22 325.7 1152.11 304.92 1161.93 285.67 1254.37 263.94 1374.65 241.08 1449.26 214.65 1436.7 182.32 1342.57 142.9 1212.61 94.23 1107.6 37.71 1070.94 -28.47 1111.11 -102.91 1198.99 -178.81 1292.14 -254.87 1341.85 -324.18 1326.01 -378.34 1248.49 -413 1135.11 -422.53 1022.4 -408.48 939.35 -371.99 905.62 -320.77 919.47 -271.7 970.44 -234.74 1033.21 -224.44 1085.31 -251.13 1114.96 -314.38 1109.29 -406.57 1070.54 -508.58 1004.23 -599.46 921.7 -656.25 835.09 -665.26 749.08 -624.7 674.7 -547.88 614.76 -465.31 567.65 -404.78 534.22 -392.68 510.48 -439.74 495.4 -533.25 483.82 -643.28 471.96 -730.76 462.93 -763.36 449.96 -727.27 431.4 -638.96 413.25 -532.31 388.5 -452.53 356.66 -436.35 324.82 -488.05 286.64 -583.39 242.77 -684.51 199.31 -747.27 151.16 -747.4 100.14 -685.55 51.94 -583.24 4.53 -476.55 -38.15 -399.54 -72.18 -374.41 -95.31 -402.76 -103.39 -472.01 -98.65 -552.53 -78.07 -615.58 -44.35 -642.63 -10.03 -621.4 21.74 -557.59 38.98 -464.97 28.67 -364.68 -13.05 -276.64 -88.25 -214.07 -185.9 -185.18 -292.4 -187.7 -385.11 -217.12 -440.71 -259.64 -446.73 -302.62 -401.29 -350.16 -287.22 -319.96 -261.46 -247.68 -423.28 -183.79 -539.58 -115.45 -605.71 -47.47 -592.4 21 -510.75 84.06 -401.52 140.62 -325.34 193.86 -330.73 240.74 -420.53 282.33 -553.1 321.5 -657.83 357.31 -677.05 390.98 -598.27 423.93 -471.19 456.12 -371.48 487.96 -363.79 519.8 -456.15 550.55 -587.22 579.62 -675.16 607.97 -668.69 633.28 -570.11 654.16 -437.07 672.62 -341.64 684.73 -331.9 689.26 -404.62 690.47 -517.37 683.97 -603.57 670.68 -617.5 657.88 -551.03 643.35 -432.13 631.75 -311.56 631.26 -234.09 642.98 -224.61 672.06 -275.02 720.46 -359.87 787.85 -436.35 870.96 -472.74 959.5 -455.77 1045.74 -386.75 1116.9 -286.2 1161.15 -176.18 1172.01 -83.43 1147.03 -22.88 1096.59 0.3 1031.76 -10.03 972.3 -41.47 941.64 -86.15 951.27 -126.26 1006.72 -152.37 1098.18 -163.71 1204.65 -153.91 1297.24 -126.05 1348.93 -83.36 1344.53 -30.27 1285.49 27.41 1196.77 90.28 1109.66 151.28 1060.11 207.72 1072.52 264.32 1144.66 314.85 1252.07 358.97 1353.71 402.75 1408.63 440.59 1392.46 472.43Q1392.46 472.43 1392.46 472.43" opacity="0.40"></path><path d="M1331.43 246.57C1258.82 276.29 1157.03 303.01 1063.06 327.46 1009.12 352.82 1011.23 377.74 1064.72 404.23 1150.93 434.36 1236.55 469.48 1292.49 512.15 1302.28 561.44 1260.24 620.45 1178.97 689.3 1079.25 761.69 986.61 838.38 921.53 913.3 895.78 976.41 909.95 1023.65 953.89 1046.98 1015.71 1044.54 1074.59 1015.57 1115.43 965.58 1130.97 911.96 1114.41 865.75 1069.2 844.93 1001.19 864.06 920.55 925.06 837.86 1021.15 759.1 1129.68 693.22 1225.75 643.27 1281.26 609.61 1280.62 591.54 1225.18 585.24 1136.32 589.94 1055.21 599.16 1015.87 608.79 1043.16 620.79 1133.46 628.36 1254.86 630.05 1358.25 630.1 1399.08 623.54 1359.47 610.85 1258.05 596.48 1149.29 577.13 1087.98 553.71 1110.71 529.73 1209.99 502.69 1335.36 472.97 1419.38 443.25 1415.63 411.56 1326.07 377.64 1200.65 343.18 1104.47 305.49 1084.7 263.81 1145.79 220.45 1255.05 171.96 1352.79 117.99 1390.58 62.37 1350.96 2.02 1249.36 -61.48 1129.08 -122.6 1035.68 -182.05 1002.28 -235.55 1032.79 -278.05 1110.27 -307.35 1196.38 -319.5 1255.54 -315.35 1267.16 -293.71 1222.98 -257.48 1136.91 -217.3 1029.72 -177.47 929.4 -148.42 856.23 -142.16 820.25 -162.69 822.51 -213.33 852.71 -289.26 901.76 -381.23 950.64 -474 986.88 -548.88 1006.68 -591.85 1002.1 -592.62 975.33 -554.05 929.66 -485.62 870.62 -407.69 805.24 -348.2 734.41 -325.51 666.21 -352.07 603.75 -424.78 543.67 -524.59 491.13 -622.28 445.51 -687.23 402.65 -698.09 364.86 -650.03 330.76 -561.94 297.54 -463.16 266.34 -390.55 236.62 -373.78 206.9 -416.74 179.37 -501.32 154.7 -634.3 121.28 -618.63 86.79 -477.27 91.68 -353.51 107.94 -371.46 153.25 -474.42 154.53 -536.67 132.51 -568.39 89.71 -561.49 24.1 -517.17 -57.93 -443.22 -151.05 -354.33 -242.62 -263.51 -315.35 -185.98 -358.41 -130.4 -361.39 -100.54 -327.17 -95.75 -263.94 -110.14 -191.85 -140.06 -140.87 -174.36 -129.78 -205.42 -172.35 -231.94 -262.46 -245.69 -377.37 -245.47 -481.36 -233.51 -538.38 -208.67 -529.19 -174.08 -457.58 -131.34 -359.08 -83.71 -276.83 -34.36 -253.98 17.98 -308.55 68.76 -420.47 116.39 -541.21 164.45 -613.77 208.36 -602.74 247.63 -512.44 286.84 -392.9 321.43 -306.35 351.15 -302.6 380.87 -386.62 405.02 -508.98 423.69 -602.38 442.31 -619.23 455.44 -549.17 463.43 -428.94 471.84 -316.06 476.12 -262.25 477.7 -286.31 482.26 -372.93 487.42 -474.98 496.18 -543.5 513.09 -549 538.48 -485.44 575.32 -377.82 623.9 -262.45 685.03 -178.22 757.35 -146.63 834.21 -171.2 912.75 -234.17 985.19 -307.61 1042.1 -368.6 1078.12 -392.51 1087.22 -372.69 1070.59 -312.91 1030.15 -225.9 974.43 -129.75 920.63 -37.24 879.78 35.96 866.4 84.2 890.44 106.68 950.97 106.81 1039.72 92.5 1137.92 66.38 1224.68 39.91 1278.05 19.03 1285.13 1.68 1244.08 -4.54 1167.29 0.09 1082.82 11.33 1016.79 31.27 994.5 57.19 1028.2 86.75 1108.88 118.87 1211.77 151.4 1302.23 184.84 1348.2 216.85 1331.43 246.57Q1331.43 246.57 1331.43 246.57" opacity="0.29"></path><path d="M1269.44 329.46C1202.95 357.06 1109.37 389.88 1018.33 427.82 956.92 466.03 941.53 509.74 973.39 558.75 1042.5 607.79 1124.65 661.26 1194.98 717.44 1235.68 770.45 1233 821.85 1188.12 867.48 1111.28 902.66 1019.66 925.34 932.55 931.54 865.22 922.88 828.8 897.64 825.21 859.01 852.09 818.76 898.03 781.07 950.2 757.25 1000.16 759.46 1034.17 791.42 1046.3 855.23 1035.85 942.29 1002.16 1040.82 950.37 1131.66 884.68 1193.73 812.77 1213.93 741.11 1186.19 671.75 1122.7 610.82 1042.02 559.97 973.49 518.34 947.46 486.82 976.74 463.38 1059.15 447.36 1169.8 435.82 1272.81 426.2 1330.29 420.03 1321.39 412.76 1249.5 402.84 1144.73 393.88 1056.49 380.93 1023.64 363.34 1065.53 345.88 1166.68 323.47 1282.33 295.87 1358.2 268.28 1357.86 236.15 1281.32 199.85 1166.06 163.69 1064.19 123.67 1019.64 80.59 1047.59 38.46 1133.72 -5.38 1235.71 -49.28 1308.67 -89.73 1323.86 -127.2 1272.47 -159.01 1174.46 -189.57 998.24 -108.35 1171.09 -66.73 1184.66 -54.42 1137.33 -58.63 1057.88 -84.35 964.08 -132.65 870.54 -201.1 794.59 -283.64 744.41 -368.4 722.46 -445.08 726.12 -500.69 747.3 -525.83 781.87 -516.16 817.29 -473.44 846.25 -410.95 868.77 -341.82 877.3 -285.21 872.05 -260.55 856.05 -275.84 829.11 -332.11 794.83 -418.02 754.32 -513.34 711.23 -593.1 668.43 -635.62 623.64 -628.34 581.72 -572.4 544.01 -486.82 505.99 -396.03 472.91 -329.54 445.32 -311.27 417.72 -344.97 396.26 -417.87 380.52 -546.94 358.96 -594.12 332.91 -483.51 319.34 -388.6 303.54 -306.33 281.48 -254.21 249.65 -241.59 207.07 -266.57 151.91 -318.12 84.07 -383.86 9.8 -443.66 -69.6 -483.24 -146.7 -495.73 -210.42 -475.67 -255.15 -427.19 -272.69 -356.99 -262 -275.92 -223.94 -194.95 -166.57 -121.05 -108.94 -62.7 -63.94 -22.69 -49.19 -1.62 -76.51 2.67 -144.91 -5.18 -243.54 -23.87 -347.8 -45.68 -432.36 -66.03 -471.99 -86.05 -456.17 -99.07 -390.42 -103.98 -298.87 -103.9 -221.08 -95.52 -187.66 -80.16 -218.43 -60.54 -306.96 -36.12 -422.13 -8.69 -518.91 20.78 -557.5 51.26 -521.08 81.47 -424.66 112.19 -314.87 141.62 -241.12 169.21 -240.78 196.81 -316.65 221.92 -429.5 244.96 -525.2 268.5 -561.63 290.99 -520.66 313.55 -421.77 338.17 -306.35 364.87 -221.28 395.32 -196.81 430.03 -238.71 470.67 -323.75 518.41 -414.18 571.14 -476.36 630.8 -483.15 696.14 -432.5 761.8 -339.35 827.6 -231.93 888.82 -139.71 939.21 -83.23 976 -72.7 994.4 -102.18 993.89 -160.45 973.43 -224.53 935.7 -275.42 890.9 -303.05 844.27 -297.13 806.65 -259.84 790.77 -196.54 801.44 -117.77 842.66 -34.99 910.98 46.17 997.52 115.39 1087.87 169.36 1187.77 220.46 1155.07 246.08 1043.58 241.95 974.87 235.84 935.41 233.49 940.1 236.49 991.59 239.54 1076.94 248.79 1172.85 264.34 1251.21 280.14 1287.71 301.86 1269.44 329.46Q1269.44 329.46 1269.44 329.46" opacity="0.95"></path><path d="M1207.96 553.97C1147.9 579.45 1062.87 606.84 976.09 635.49 909.71 663.47 879.27 691.37 889.82 717.58 937.95 741.12 1007.99 760.42 1080.99 773.33 1141.22 781.04 1171.79 780.1 1166.25 769.51 1126.17 754.23 1058.6 731.33 976.72 703.68 893.38 680.09 822.52 660.99 773.16 652.97 749.99 663.24 752.68 693.59 775.96 746.33 815.4 817.16 859.81 901.32 900.64 988.49 943.67 1090.03 924.17 1094.99 865.92 1001.07 812.89 934.33 754.64 887.84 695.13 880.16 634.32 919.85 577.09 1000.39 524.94 1103.1 475.89 1198.61 432.74 1259.68 394.94 1266.01 360.38 1217.38 329.81 1129.61 302.05 1035 276.05 972.73 251.28 966.71 226.83 1023.36 202.84 1123.36 178.27 1228.68 152.8 1296.67 127.32 1299.34 101.55 1235.35 75.92 1132.01 50.75 1029.52 26.63 966.21 4.59 962.62 -15.69 1017.96 -32.31 1107.09 -43.96 1195.08 -52.38 1252.29 -54.47 1256.02 -49.57 1205.78 -41.56 1116.31 -27.39 1013.84 -8.4 925.97 9.27 872.62 26.92 863.79 40.68 894.69 44.33 954.68 37.1 1021.83 15.38 1077.03 -22.39 1109.18 -75.86 1107.42 -143.03 1073.04 -217.25 1011.37 -293.45 933.07 -362.98 850.28 -416.34 770.3 -447.39 703.86 -450.75 654.92 -427.91 624.04 -381.74 610.66 -321.12 610.39 -238.56 630.19 -230.45 679.26 -328.64 691.78 -416.02 695.44 -498.22 691.91 -556.18 682 -576.57 669.99 -553.62 653.16 -492.28 632.67 -410.54 611.54 -328.09 587.99 -268.03 562.51 -249.22 537.04 -274.97 510.25 -336.45 481.77 -418.23 452.63 -495.98 420.57 -549.47 384.55 -567.05 346.41 -542.7 302.76 -482.96 252.89 -400.91 200.56 -314.08 142.49 -239.6 80.16 -190.14 19.7 -172.72 -39.66 -186.29 -93.13 -226.51 -134.69 -280.63 -161.92 -335.89 -170.31 -383.9 -160.64 -412.51 -132.12 -417.17 -88.59 -397.95 -42.25 -356.1 1.07 -297.71 29.35 -227.84 30.35 -154.85 0.32 -85.31 -61.88 -22.01 -147.17 29.76 -242.68 69 -329.2 95.97 -386.63 111.59 -402.49 118.62 -371.88 117.27 -306.74 112.16 -225.03 106.21 -154.22 97.48 -122.64 91.35 -142.94 89.18 -214.52 87.26 -316.88 90.29 -418.18 98.34 -483.37 107.16 -489.62 120.62 -433.83 138.38 -336.38 156.44 -238.08 178.27 -176.66 203.74 -179.29 229.22 -247.26 257.73 -350 289.29 -444.97 321.15 -496.6 356.58 -483.11 395.8 -411.02 435.79 -306.58 479.95 -206.64 528.09 -143.62 576.48 -135.56 627.85 -180.04 680.73 -256.87 730.83 -340.91 778.98 -400.69 822.16 -417.68 856.96 -387.28 881.95 -316.11 894.24 -222.85 894.26 -126.88 880.4 -49.54 853.55 -3.16 820.45 7.56 782.45 -13.42 745.97 -55.18 720.97 -108.96 710.91 -158.14 721.77 -192.52 756.51 -208.81 813.49 -201.25 888.02 -172.25 969.8 -124.98 1048.61 -65.27 1111.56 0.14 1147.85 69.61 1151.19 135.57 1120.4 194.99 1064.59 249.72 994.35 295.91 926.67 334.42 881.31 367.73 869.13 395.61 896.53 420.12 959.85 441.95 1045.1 462.94 1131.92 484.58 1198.44 505.55 1226.77 528.5 1207.96 553.97Q1207.96 553.97 1207.96 553.97" opacity="0.54"></path><path d="M1146.45 468.68C1092.61 492.03 1016.25 510.39 935.12 523.76 845.81 540.9 868.25 548.84 958.99 541.42 1050.98 533.94 1087.62 532.43 1018.02 554.37 947.44 584.14 871.14 626.87 799.15 683.13 738.52 748.56 695.84 821.61 673.05 896.26 670.51 962.76 684.57 1015.76 709.95 1047.14 744.25 1052.87 779.17 1031.52 809.72 986.16 835.4 929.21 850.4 870.07 853.87 823.88 847.41 806.37 829.96 823.69 803.62 877.76 769.72 959.56 730.51 1053.65 688.48 1138.64 643.12 1193.29 597.9 1204.02 554.36 1166.96 510.19 1095.1 468.94 1008.17 431.15 934.08 393.57 899.93 359.54 917.34 329.13 984.11 298.86 1080.25 271.98 1174.81 248.63 1235.18 225.28 1240.34 206 1188.21 190.79 1097.99 160.77 954.72 155.07 1163.79 161.83 1191.17 163.4 1150.7 163.15 1075.49 158.7 984.2 146.7 895.44 126.93 828.08 97.4 792.47 57.94 792.1 8.18 821.67 -50.9 869.97 -114.86 927.67 -181.84 978.56 -246.75 1012.68 -302.74 1026.38 -345.94 1014.92 -370.98 981.18 -375.76 928.78 -359.08 864.59 -322.76 795.9 -275.09 725.5 -221.42 661.03 -171.66 605.52 -138.15 558.3 -126.68 521.89 -142.8 494.81 -187.02 475.82 -253.78 462.92 -333.17 453.43 -442.66 445.54 -492.14 425.65 -410.88 407.52 -334.37 394.2 -260.38 376.03 -206.54 352.68 -187.5 329.33 -206.03 301.36 -256.31 269.19 -327.89 237.24 -402.27 201.61 -462.83 163.25 -498.57 126.23 -500.27 88.19 -468.35 51.1 -409.17 18.22 -333.35 -10.35 -254.32 -31.83 -183.88 -45.23 -132.64 -48.28 -106.01 -39.41 -105.96 -22.24 -128.61 5 -166.94 39.4 -215.55 72.11 -263.09 101.54 -301.8 120.53 -328.55 120.87 -337.1 100.28 -327.03 55.98 -299.97 -8.73 -258 -88.76 -205.68 -174.04 -145.54 -249.91 -83.24 -305.49 -22.72 -329.45 35.53 -318.16 87.33 -273.44 131.75 -205.51 169.88 -135.05 200.67 -78.86 225.37 -55.49 244.71 -76.3 260.2 -138.84 273.53 -230.07 289.15 -363.31 323.02 -376.1 345.65 -248.04 361.55 -162.44 381.04 -112.65 404.39 -117.78 427.75 -178.13 454.4 -270.32 483.98 -361.86 513.34 -424.02 545.16 -434.58 578.65 -391.43 611.06 -308.34 643.92 -210.25 675.87 -125.22 704.9 -74.97 730.89 -70.48 752.01 -107.99 767.78 -175.87 776.46 -250.93 776.67 -311.91 770.58 -345.16 756.02 -339.87 733.74 -298.04 709.21 -227.55 681.67 -142.41 654.94 -57.89 636.03 15.04 626.13 65.54 629.67 90.43 650.21 89.66 687.91 68.73 742.23 35.65 808.51 -5.58 882.05 -43.88 954.97 -73.32 1040.26 -96.35 1061.77 -54.42 992.34 -0.27 930.43 44.8 869.82 92.15 823.81 139.07 805.07 187.68 817.92 233.27 862.66 274.81 932.24 316.2 1013.49 353.11 1089.69 385.42 1144.59 417.53 1165.49 445.33 1146.45 468.68Q1146.45 468.68 1146.45 468.68" opacity="0.43"></path><path d="M1084.95 245.16C1037.16 266.39 969.51 285.56 895.18 303.05 827.54 321 778.05 338.19 754.04 355.65 758.91 374.97 789.29 396.34 837.97 421.25 897.67 449.97 955.7 484.16 1002.37 524.93 1032.25 570.24 1038.93 622.12 1022.05 679.65 984.14 737.96 929.62 797.41 865.37 854 797.05 901.8 732.23 938.68 676.27 960 632.05 964.04 602.37 949.33 586.97 916.78 585.57 873.92 594.99 824.42 611.69 777.22 635.14 744.59 659.61 732.14 682.07 746.51 703.58 789.22 719.28 856.19 728.32 938.46 732.89 1021.18 730.42 1090.54 721.73 1132.09 708.78 1137.52 691.08 1105.12 669.99 1041.79 646.3 965.45 620.91 893.46 594.98 846.03 567.95 838.93 541.53 874.98 516.45 947.16 491.12 1037.08 467.67 1120.65 446.44 1173.68 425.21 1180.85 406.71 1139.74 390.69 1063.32 374.42 972.76 360.1 892.29 347.1 841.8 332.99 832.72 319.06 864.37 304.23 925.55 286.81 1001.5 266.81 1070.26 242.97 1115.27 214.87 1127.83 181.46 1103.48 142.03 1048.17 98.14 971.77 48.6 888.76 -5.61 812.94 -60.8 753.94 -116.86 719.62 -170.69 711.01 -217.76 726.88 -256.33 760 -282.76 801.9 -295.18 847.94 -291.99 887.41 -272.84 914.92 -241.94 929.76 -200.77 927.89 -154.55 910.73 -112.4 880.26 -78.45 839.22 -59.48 791.67 -61.53 738.35 -85.51 684.35 -130.95 632.36 -193.19 580.64 -265.04 533.49 -336.72 491.41 -397.38 451.49 -437.9 416.39 -450.96 385.45 -435.14 356.04 -391.89 329.6 -328.46 305.39 -258.33 281.65 -192.83 259.27 -145.04 238.05 -126.11 216.82 -138.26 197.23 -177.85 179.63 -238.26 162.48 -305.99 148.18 -368.23 137.55 -427.16 126.34 -374.95 133.92 -280.99 153.57 -208.85 168.77 -141.56 186.9 -86.78 205.37 -40.89 221.66 -70.21 192.61 -123.73 132.54 -164.43 74.67 -200.24 6.05 -227.11 -67.81 -244.62 -137.53 -248.86 -197.15 -240.17 -238.1 -220.01 -254.56 -189.33 -243.88 -150.89 -206.99 -105.75 -153.28 -57.34 -90.85 -8.2 -33.38 42.29 3 90.55 10.06 135.46 -18.04 178.93 -78.6 218.32 -161.18 253.7 -249.11 287.28 -322.27 317.48 -364.07 344.86 -363.2 371.16 -320.91 395.57 -246.7 418.58 -160.35 441.28 -88.12 463.17 -49.14 484.4 -56.28 505.63 -109.3 525.69 -190.71 544.34 -276.44 562.68 -344.43 579.01 -374.25 592.75 -358.97 605.4 -303.36 614.53 -221.24 619.46 -132.92 621.75 -34.48 599.91 -53.23 578.07 -143.05 556.5 -229.58 531.53 -247.64 542.21 -171.91 563.89 -99.65 597.28 -23.65 642.61 47.03 697.31 107.4 759.62 151.27 825.38 177.61 888.08 186.67 943.5 181.39 985.55 166.31 1009.7 142.45 1013.13 116.84 994.75 93.38 958.91 70.7 908.92 54.69 852.34 46.17 780.84 43.94 764.57 78.07 836.77 107.76 907.2 130.34 981.18 153.89 1045.79 177.29 1089.58 201.15 1103.88 223.93 1084.95 245.16Q1084.95 245.16 1084.95 245.16" opacity="0.17"></path><path d="M1023.46 333.2C981.54 352.3 922.52 375.05 855.89 401.33 791.46 427.74 738.2 457.88 702.84 491.65 689.68 525.59 698.71 563.04 726.88 603.4 770.76 643.03 821.87 684.24 872.67 725.47 918.44 763.16 951.33 797.83 967.76 826.96 967.14 848.33 948.43 860.63 914.19 861.86 867.33 853.23 812.29 833.29 753.84 803.13 694.85 768.73 640.19 730.85 592.64 694.69 553.12 668.41 523.44 654.58 503.26 658.27 492.36 682.49 489.12 726.65 491.55 788.18 499.87 859.68 510.53 933.86 521.62 1000.39 534.66 1048.78 545.7 1071.96 553.76 1065.13 561.43 1030.75 565.24 973.71 565.07 904.85 561.4 816.75 535.27 814.27 514.57 911.87 499.7 993.62 482.65 1066.16 463.54 1112.17 444.44 1120.86 423.73 1089.78 401.39 1027.3 378.83 947.68 354.24 868.43 327.37 805.93 299.79 772.01 269.37 771.72 235.89 802.4 201.4 857.59 163.65 923.11 122.87 985.12 81.7 1033.8 38.37 1058 -6.03 1054.24 -48.48 1023.74 -89.6 970.86 -127.37 904.06 -159.24 830.9 -184.44 761.54 -200.88 703.25 -208.04 660.02 -204.59 635.21 -190.11 628.03 -167.6 637.53 -136.79 658.86 -100.36 686.98 -64.47 720.49 -30.7 752.2 -3.73 778.62 10.61 800.56 10.79 813.35 -5.62 816.84 -39.08 813.07 -87.55 800.95 -147.33 782.29 -212.13 758.26 -275.68 730.35 -330.33 700.47 -369.29 668 -387.45 635.68 -381.66 604.77 -353.67 573.04 -306.04 543.75 -245.38 517.58 -182.54 491.27 -125.45 468.39 -83.53 449.28 -65.05 430.18 -71.7 415.3 -101.36 404.39 -150.21 393.35 -208.83 385.96 -267.97 381.67 -339.28 375 -356.62 363.49 -299.28 351.4 -242.26 336.95 -178.92 316.79 -115.97 289.2 -58.39 254.33 -11.56 211.1 21.69 159.71 39.96 103.85 43.66 43.7 34.94 -17.14 14.79 -72.59 -11.87 -120.16 -41.21 -154.72 -72.59 -172.58 -100.47 -171.63 -122.53 -150.96 -139.61 -115.24 -148.31 -67.15 -148.66 -13.89 -142.2 33.02 -128.23 67.39 -108.17 80.86 -82.94 67.59 -53.82 27.82 -22.4 -34.84 11.71 -110.85 46.24 -188.82 80.05 -254.8 114.81 -296.26 147.83 -305.12 178.52 -278.58 209.39 -223.46 237.59 -149.84 262.85 -74 288.11 -15.28 310.39 13.87 329.5 5.2 348.6 -40.79 364.08 -111.38 376.03 -189.36 392.22 -280.39 408.15 -255.82 409.23 -152.38 410.09 -72.75 409.49 -3.26 408.48 45.12 410.17 65.97 413.33 58.36 419.48 27.03 430.78 -22.45 447.27 -78.11 470.25 -129.72 500.05 -171.37 537.19 -194.26 581.61 -195.92 631.01 -177.06 685.11 -139.4 741.54 -88.08 795.92 -26.88 846.43 37.22 889.15 98.96 920.43 156.46 938.01 204.84 939.63 242.93 926.26 271.15 897.94 289.3 857.4 299.31 811.49 301.55 763.73 299.18 720.71 294.6 683.6 282.84 733.28 267.51 816.53 268.57 883.04 270.83 947.29 277.35 999.91 288.16 1033.36 299.09 1041.94 314.09 1023.46 333.2Q1023.46 333.2 1023.46 333.2" opacity="0.91"></path><path d="M961.95 555.64C875.28 589.61 757.48 627.97 662.19 666.4 626.87 700.13 658.1 724.86 732.62 731.81 821.97 724.6 883.36 693.95 896.52 644.22 860.78 600.73 784.25 571.15 689.26 580.87 589.77 643.54 505.26 753.13 442.61 881.4 400.41 977.82 376.77 1003.9 363.11 941.55 359.39 831.3 354.22 733.46 341.94 718.17 331.09 807.3 309.5 949.75 275.53 1050.68 241.57 1038.67 196.84 922.24 143.63 783.73 91.86 707.85 35.23 732.6 -19.89 827.57 -65.1 936.53 -97.39 989.31 -107.55 962.35 -97.24 868.42 -61.5 745.81 -6.52 637.06 43.94 563.44 80.2 536.76 80.57 544.19 32.05 578.06 -59.79 613.84 -174.04 637.75 -273.46 656.99 -324.02 657.5 -301.81 642.47 -219.63 623.4 -108.71 595.3 -22.04 561.34 -7.38 527.37 -66.06 489.15 -164.64 444.17 -262.09 395.14 -309.76 332.85 -290.97 254.75 -214.74 171.98 -106.7 80.27 -1.21 -5.95 79.1 -65.74 118.8 -87.83 121.59 -58.74 92.8 5.48 52.7 87.82 16.98 146.39 -14.98 138.01 -28.1 54.78 -22.96 -79.06 -7.7 -198.94 19.8 -243.04 53.42 -180.28 90.16 -54.88 127.02 54.67 160.98 66.71 194.95 -34.2 224.42 -169.76 251.74 -245.81 282.17 -217.44 316.45 -100.27 360.05 34.86 413.77 122.12 482.82 126.52 567.14 65.48 655.21 -27.41 744.07 -96.74 817.38 -114.9 859.1 -80.12 859.68 -1.79 814.72 94.04 744.6 196.12 667.02 282.71 615.69 348.79 621.79 400.7 688.8 437.76 799.36 468.09 911.05 493.72 976.61 521.68 961.95 555.64Q961.95 555.64 961.95 555.64" opacity="0.94"></path><path d="M900.45 464.88C827.38 494.6 725.21 511.38 630.82 515.31 573.18 518.62 565.72 509.2 602.45 490.5 671.27 477.78 743.07 467.6 795.99 472.22 822.32 503.02 811.4 563.47 769.53 654.06 704.09 756.95 627.04 855.95 550.16 921.14 474.36 931.33 409.38 880.59 356.31 785.74 309.97 695.49 272.28 648.98 239.88 679.09 209.86 779.75 180.76 905.16 151.04 989.18 121.32 985.43 92.39 895.76 66.36 771.37 42.72 671.9 26.34 640.3 21.18 679.39 22.74 767.79 38.78 856.55 68.77 908.2 99.85 909.19 134.23 856.18 160.72 770.19 163.64 668.13 139.32 575.07 82.04 503.41 -1.81 453.08 -100.27 425.44 -190.87 411.57 -249.39 409.79 -258.85 408.56 -212.68 400.94 -129.76 395.18 -33.61 378.43 39.45 348.72 56.85 319 16.81 277.71 -61.15 227.43 -152.57 179 -220.4 126.17 -244.24 76.45 -221 38.81 -155.31 17.5 -66.78 22.01 28.41 47.86 110.6 98.25 169.84 161.36 204.04 208.4 215.03 226.18 211.3 194.26 193.97 111.67 176.03 -3.72 164.15 -113.91 151.67 -174.81 149.86 -160.14 159.24 -72.15 169.68 40.75 189.97 124.41 219.68 128.2 249.4 44.2 287.14 -75.19 332.75 -164.39 379.41 -183.05 435.29 -119.64 499.27 -7.61 562.65 109.01 629.54 186.42 692.67 207.2 742.21 172.95 773.9 109.2 778.66 45.27 758.38 -6.37 711.43 -24.16 647.18 -9.16 589.59 32 550.55 91.12 549.08 155.35 594.7 225.55 679.44 289.03 782.32 341.77 871.77 393.89 917.84 435.14 900.46 464.87Q900.45 464.88 900.45 464.88" opacity="0.60"></path><path d="M838.96 243.54C778.9 269.02 693.64 290 606.82 308.58 538.32 329.78 501.76 353.69 500.11 385.19 531.69 425.74 582.24 480.03 636.95 549.49 689.84 625.47 725.12 707.61 738.6 783.61 733.19 837.47 707.67 860.08 668.53 841.32 618.61 788.97 564.63 711.69 512.18 633.93 457.91 589.25 409.25 593.59 368.02 654.28 327.08 754.37 293.49 859.68 268.01 927.67 242.54 930.33 226.38 866.11 219.29 764.04 226.43 633.47 250.26 820.21 216.75 829.65 169.89 793.81 104.41 734.75 24.99 665.76 -56.23 589.96 -129.63 520.06 -179.88 460.71 -196.91 406.08 -174.84 362.09 -116.17 326.59 -39.19 293.43 40.9 264.74 100.96 239.27 119.77 213.79 95.88 192.73 39.61 177.85 -36.55 165.3 -107.75 162.95 -156.71 173.42 -177.27 188.63 -162.19 216.58 -117.66 253.12 -51.42 282.85 24.92 305.34 99.95 307.8 170.08 279.81 227.14 219.97 270.13 131.98 301.26 34.57 321.93 -53.6 336.72 -105.96 345.46 -106.56 354.42 -52.16 367.07 41 378.44 133.24 396.2 192.32 421.67 189.69 447.15 121.71 479.13 21.57 515.8 -68.69 551.2 -119.57 588.58 -109.43 623.99 -46.08 653.34 50.34 674.62 150.48 682.76 229.35 679.02 274.64 658.54 282.24 621.8 261.77 580.15 219.15 534.01 173.58 494.29 136.87 476.29 106.66 484.06 94.33 523.28 97.93 590.92 110.57 676.62 133.01 762.62 159.84 828.72 189.31 857.77 218.07 838.96 243.54Q838.96 243.54 838.96 243.54" opacity="0.61"></path><path d="M777.63 336.92C729.97 358.15 662.17 387.62 588.11 424.72 519.73 462.22 467.4 507.67 436.79 559.4 430.34 609.55 444.34 661.91 472.23 710.72 511.94 748.46 552.15 772.41 586.5 775.67 616.76 759 634.86 719.83 640.72 662.82 638.72 604.43 626.72 551.8 607.9 520.73 584.66 525.14 558.63 566.51 532.64 640.13 505.55 729.48 480.69 813.04 459.46 866.07 438.24 873.24 421.65 831.77 408.7 756.36 394.66 666.72 382.07 585.33 368.51 529.16 350.55 506.63 327.58 517.3 296.87 551.9 258.3 604.36 209.71 657.33 151.63 700.08 89.45 732.41 24.07 745.14 -37.73 740.03 -87.72 721.5 -120.76 691.5 -129.87 656.07 -114.82 615.22 -74.57 575.3 -14.39 540 51.47 503.85 114.97 474.36 162.63 453.13 181.39 431.9 170.5 419.94 134.77 416.06 79.15 411.32 18.32 412.62 -36.19 416.68 -80.14 415.33 -103.12 410.37 -103.86 396.18 -85.18 368.56 -48.75 325.36 -0.98 265.21 55.4 194.64 113.57 116.49 168.76 41.93 222.85 -14.76 270.43 -44.47 310.89 -37.5 348.46 3.1 380.33 72.41 407.6 153.86 433.78 221.07 457.29 258.24 478.52 251.07 499.74 198.04 517.69 118.78 531.54 37.63 544.31 -27.79 551.05 -57.08 550.28 -45.93 546.6 0.69 533.98 72.35 512.61 152.85 490.14 231.96 462.45 296.31 433.87 340.8 408.3 368.62 449.95 342.07 530.46 320.01 600.55 305.07 673.47 298.24 737.28 300.77 781.2 303.71 796.39 315.69 777.63 336.92Q777.63 336.92 777.63 336.92" opacity="0.47"></path><path d="M716.09 557.12C629.58 591.09 511.04 631.89 414.12 663.44 365.48 678.05 367.57 656.5 396.99 590.55 446.88 519.3 483.38 459.77 494.89 466.98 501.1 560.84 485.29 703.66 451.33 804.59 417.36 792.58 368.45 676.11 303.38 540.65 233 451.84 143.5 440.24 49.09 477.98 -24.83 546.1 -62.95 595.44 -39.21 610.67 32.81 614.28 137.58 593.93 224.09 559.97 238.54 526 185.37 481.64 102.35 419.16 16.04 345.07 -27.72 242.72 -22.94 130.08 17.52 47.83 82.49 23.4 148.06 87.31 218.72 197.88 275.07 300.58 309.04 312.59 347.19 147.13 326.88 79.11 324.94 242.65 364.68 353.12 444.48 427.68 555.68 471.94 663.6 499.24 730.54 523.16 716.09 557.12Q716.09 557.12 716.09 557.12" opacity="0.10"></path><path d="M654.46 461.02C594.4 486.5 508.68 489.43 423.48 471.42 352.1 453.43 305.31 420 281.71 386.78 278.32 379.49 282.98 403.9 284.03 471.56 289.15 569.91 281.29 675.19 255.82 743.17 230.35 745.83 189.67 681.12 140.4 583.57 95.2 481.79 50.79 405.37 20.79 363.28 11.01 351.36 30.77 357.01 83.48 362.35 150 373.92 225.4 370.25 285.46 344.78 304.27 319.31 284.1 274.44 238.88 218.72 175.19 169.23 119.65 123.83 84.86 102.36 62.6 111.06 63.39 160.45 79.7 243.55 102.37 322.43 129.7 376.82 155.17 374.19 180.65 306.21 201.85 211.26 223.33 131.57 251.16 82.58 290.13 85.18 345.78 125.86 413.96 192.46 496.52 265.65 578.88 327.79 642.78 389.95 673.27 435.55 654.46 461.02Q654.46 461.02 654.46 461.02" opacity="0.47"></path><path d="M592.95 242.03C506.28 276 386.31 295.72 295.47 343.81 228.18 437.29 185.8 580.75 151.83 681.68 117.86 669.67 98.75 553.08 121.52 435.7 167.84 334.57 260.28 274.57 346.95 240.61 361.61 206.64 319.87 205.13 272.88 261.74 217.47 334.61 203.18 423.67 237.15 435.68 271.11 334.75 346.91 218.82 446.83 169.86 538.33 166.28 607.61 208.06 592.95 242.03Q592.95 242.03 592.95 242.03" opacity="0.63"></path></g></svg>