<svg xmlns="http://www.w3.org/2000/svg" version="1.1" xmlns:xlink="http://www.w3.org/1999/xlink" xmlns:svgjs="http://svgjs.dev/svgjs" viewBox="0 0 640 800" opacity="0.3"><defs><linearGradient x1="50%" y1="0%" x2="50%" y2="100%" id="ssscribble-grad"><stop stop-color="hsl(206, 75%, 49%)" stop-opacity="1" offset="0%"></stop><stop stop-color="hsl(331, 90%, 56%)" stop-opacity="1" offset="100%"></stop></linearGradient></defs><g fill="none" stroke-width="2.25" stroke="url(#ssscribble-grad)" stroke-linecap="round"><path d="M1199.37 394.41C1204.19 412.46 1245.81 431.64 1313.95 451.92 1393.51 472.2 1465.31 493.58 1513.2 516.02 1527.19 538.44 1503.66 561.91 1448.03 586.35 1372.08 610.74 1291.75 636.05 1223.31 662.18 1180 688.15 1169.59 714.8 1192.51 741.98 1243.5 768.78 1310.33 795.85 1378.64 822.97 1435.37 849.34 1467.98 875.38 1470.1 900.78 1441.25 924.91 1385.95 947.92 1313.85 969.43 1236.39 989.09 1166.35 1006.73 1114.14 1021.97 1086.72 1034.84 1086.79 1044.9 1111.99 1051.85 1157.33 1056.23 1213.03 1057.38 1268.93 1055.24 1331.83 1047.22 1321.07 1016.19 1247.14 996.03 1180.41 983.02 1110.24 970.47 1044.2 959.28 947.76 951.25 1016.61 1007.84 1074.68 1053.66 1108.1 1090.85 1131.49 1132.18 1142.49 1176.55 1140.53 1222.23 1124.72 1268.08 1096.42 1312.42 1057.1 1353.27 1009.6 1389.32 957.03 1418.94 901.09 1440.96 845.71 1454.4 793.34 1458.61 744.78 1454.02 702.68 1440.62 667.76 1419.25 639.94 1392.2 619.67 1360.54 606.23 1326.48 599.34 1293.37 597.63 1262.82 599.75 1237.34 609.85 1215.59 636.25 1238.02 647.44 1283.17 653.99 1324.5 657.95 1371.37 659.15 1420.89 659.3 1469.82 656.62 1514.88 651.27 1552.88 640.45 1589.52 606.98 1580.34 585.75 1535.83 570.77 1494.85 554.78 1448.85 537.99 1401.65 521.1 1357.92 503.59 1320.69 485.55 1293.24 467.5 1278.6 449.13 1277.5 430.39 1289.74 411.54 1314.66 392.12 1349.41 371.96 1390.87 351.42 1436.26 329.78 1481.04 306.77 1521.54 283.01 1555.22 257.47 1578.68 229.86 1590.15 201.19 1589.2 170.14 1575.38 136.58 1549.75 101.97 1514.24 64.93 1471.08 25.65 1423.21 -13.94 1373.64 -54.99 1325.48 -96.81 1281.58 -137.19 1244.34 -176.71 1215.67 -214.15 1196.72 -247.54 1188.31 -276.71 1190.02 -300.29 1200.91 -317.32 1220.3 -327.11 1245.74 -328.92 1275.03 -323.63 1306.84 -310.72 1337.98 -290.91 1366.28 -267.28 1390.73 -240.18 1408.82 -212.05 1419.44 -187.29 1422.42 -167.13 1416.82 -154.64 1402.88 -153.18 1381.23 -163.71 1352.51 -187.56 1317.96 -224.38 1278.6 -273.07 1236.05 -331.24 1191.83 -394.16 1146.89 -458.2 1103 -518.1 1061.34 -567.99 1022.5 -604.12 987.68 -622.78 957.42 -622.72 931.93 -604.09 911.52 -569.3 896.03 -524.57 885.52 -475.1 879.38 -428.43 877.02 -384.29 880.6 -429.9 901.28 -519.34 914.44 -592.69 923.75 -665.18 931.99 -726.62 938.76 -767.92 944.84 -783.38 948.85 -770.65 950.61 -733.13 951.02 -677.05 948.98 -612.81 944.57 -532.54 934.48 -529.64 901.51 -618.33 879.66 -696.83 863.45 -773.06 846.04 -832.64 827.7 -864.16 808.56 -861.54 788.8 -825.19 768.66 -763.72 748.03 -689.52 727.27 -618.87 706.57 -568.53 685.6 -549.43 664.88 -567 644.54 -618.46 624.09 -692.95 604.13 -774.32 584.77 -844.26 565.38 -886.8 546.64 -891.62 528.59 -857.7 510.55 -792.95 493.42 -712.64 477.17 -606.06 453.16 -585.69 408.85 -675.84 388.13 -751.51 374.22 -817.54 360.65 -859.67 347.25 -869.51 333.36 -844.21 319.39 -789.04 305.12 -714.55 290.06 -635.09 274.39 -565.36 257.87 -517.41 240.21 -499.07 221.36 -511.8 201.09 -552.24 179.38 -610.65 155.97 -674.9 130.67 -733.6 103.81 -774.43 74.97 -789.94 44.09 -777.45 11.86 -738.04 -22.2 -677.9 -57.91 -605.32 -94.3 -531.11 -131.74 -465.31 -169.79 -415.72 -207.29 -388.19 -244.38 -384.3 -280.39 -403.12 -314.21 -439.45 -345.68 -486.26 -374.04 -537.18 -398.51 -582.97 -418.71 -616.98 -434.02 -635.3 -444.36 -634.14 -449.24 -613.54 -448.51 -575.24 -443 -522.98 -432.41 -461.94 -417.22 -396.58 -399.2 -333.23 -378.4 -276.65 -355.97 -229.82 -334.24 -196.01 -313.61 -176.03 -295.55 -173.11 -278.29 -230.72 -285.74 -273.59 -314.42 -301.78 -343.83 -325.2 -380.06 -342 -421.96 -352.16 -467.73 -353.61 -515.66 -346.47 -563.56 -331.4 -608.95 -308.72 -649.79 -279.75 -683.87 -245.03 -709.45 -206.41 -725.12 -165.42 -729.94 -121.92 -724.22 -78.29 -708.04 -35.57 -682.54 7.05 -650.36 47.45 -613.17 85.23 -573.78 121.58 -536.1 154.95 -502.33 185.46 -475.41 214.26 -458.38 240.48 -452.34 264.47 -458.35 287.09 -476.77 308.01 -506.36 327.65 -545.33 346.43 -591.11 364.46 -640.33 382.05 -689.29 399.26 -734.33 416.42 -771.78 433.76 -798.51 450.99 -812.57 468.59 -812.39 486.64 -797.75 504.68 -770.31 522.95 -732.16 541.36 -686.64 559.66 -637.62 577.9 -588.93 595.84 -544.37 613.39 -507.45 630.26 -480.68 646.08 -465.75 661.06 -463.8 674.46 -474.2 685.88 -495.6 695.92 -526.64 703.43 -563.91 708.03 -604.24 710.93 -645.17 710.63 -682.64 707.03 -713.79 697.98 -743.29 666.69 -730.55 648.48 -689.33 638.76 -650.63 631.02 -606.12 626.77 -558.32 628.27 -509.57 635.65 -462.51 650.21 -419.37 672.7 -381.91 703.34 -351.71 742.24 -329.65 787.79 -316.39 839.49 -311.7 895.49 -314.92 952.07 -325.76 1007.6 -342.36 1058.76 -363.15 1101.65 -387.41 1134.27 -412.56 1154.02 -436.93 1159.87 -460 1151.35 -479.42 1129.28 -494.11 1097.45 -504.03 1058.32 -507.76 1016.6 -505.11 979.21 -496.44 950.04 -481.51 934.24 -460.85 936.14 -435 956.89 -404.67 996.52 -370.78 1051.84 -333.78 1118.33 -294.89 1189.32 -255.04 1256.2 -214.42 1311.96 -174.34 1349.57 -135.47 1364.48 -97.71 1355.08 -62.13 1322.95 -29.01 1274.62 1.86 1217.2 29.91 1160.71 55.16 1116.66 77.83 1092.66 97.84 1094.85 115.44 1125.04 130.67 1179.84 143.92 1251.76 155.53 1329.24 165.29 1400.13 173.94 1452.3 181.83 1476.76 188.46 1469.38 194.81 1431.62 201.19 1372.07 206.8 1302.01 212.81 1236.11 219.42 1189.54 225.65 1172.04 232.72 1188.84 240.78 1237.93 248.68 1310.09 257.7 1391.06 267.92 1488.72 283.8 1479.06 321.95 1375.62 344.32 1297.12 359.68 1233.29 376.37 1199.37 394.41Q1199.37 394.41 1199.37 394.41" opacity="0.08"></path><path d="M1138.16 537.99C1140.9 554.97 1176.66 572.53 1237.49 590.6 1311.5 608.65 1382.7 627.17 1436.81 646.08 1458.09 683.57 1358.28 721.91 1209.99 759.93 1113.78 796.15 1129.71 830.21 1236.24 860.39 1358.16 886.56 1407.79 906.53 1352.26 918.69 1221.38 925.39 1087.26 923.52 1016.82 913.3 1037.59 900.42 1125.14 883.04 1222.55 864.69 1278.39 853.23 1257.64 849.29 1168.52 857.98 1042.27 884.04 925.24 927.89 851.56 989.74 835.55 1065.07 870 1148.93 930.26 1232.66 1014.91 1331.78 969.42 1363.04 850.32 1291.8 754.68 1231.74 664.72 1178.34 587.97 1147.19 524.12 1151.23 477.35 1192.07 444.04 1264.99 421.98 1355.92 406.29 1445.21 392.1 1511.5 381.85 1539.21 368.1 1520.47 348.59 1459.72 339.06 1419.45 327.79 1375.66 314.67 1331.59 301.58 1291.22 286.57 1256.91 269.58 1231.4 252.6 1217.24 233.85 1215.02 213.4 1224.68 192.98 1245.8 170.93 1276.13 147.37 1313.23 100.73 1398.22 49.29 1474.13 -4.51 1519.85 -54.37 1524.8 -101.6 1485.35 -141.16 1411.68 -169.47 1320.52 -183.04 1231.65 -178.05 1162.65 -160.16 1125.42 -127.6 1123.29 -87.72 1151.19 -57.98 1201.71 -44.96 1258.28 -62.63 1306.89 -117.85 1339.46 -208.2 1345.56 -321.55 1323.82 -430.41 1277.08 -511.5 1210.48 -540 1132.67 -510.85 1050.12 -436.2 972.01 -350.07 904.07 -301.05 848.74 -318.12 808.65 -409.33 782.59 -602.33 768.45 -620.27 780.88 -461.07 789.02 -430.44 793.14 -502.18 791.48 -643.27 783.65 -768.97 773.63 -801.11 757.7 -718.02 736.64 -582.84 714.03 -493.02 687.51 -521.02 657.96 -578.48 643 -652.22 627.47 -727.94 611.41 -790.47 595.32 -827.09 578.78 -829.83 561.8 -798.23 544.81 -738.83 527.6 -664.12 510.14 -589.12 492.65 -528.71 474.87 -494.31 456.74 -522.62 420.14 -646.44 381.47 -769.99 340.03 -804.89 297.04 -722.59 250.05 -578.23 198.44 -461.04 144.65 -438.99 85.99 -513.17 23.01 -631.45 -40.22 -712.58 -105.16 -706.48 -169.02 -613.05 -226.96 -476.99 -277.91 -360.88 -317.71 -309.59 -344.01 -335.2 -354.48 -410.97 -347.75 -498.53 -328.41 -550.06 -296.94 -542.9 -258.9 -477.07 -225.61 -371.52 -201.41 -256.77 -194.77 -156.1 -213.12 -91.51 -257.04 -66.63 -324.98 -78.4 -408.95 -112.21 -498.43 -151.82 -579.25 -190.97 -637.45 -213.67 -663.01 -216.32 -650.69 -201.77 -606.59 -169.02 -539.83 -124.05 -467.84 -68.97 -413.33 -10.27 -390.09 47.33 -408.14 107.26 -466.96 162.16 -552.86 210.5 -644.57 234.71 -685.03 257.17 -717.9 277.82 -740.73 298.47 -752.09 317.31 -750.75 334.29 -736.59 351.27 -711.08 366.2 -675.92 379.09 -633.85 391.98 -588.08 402.84 -541.76 411.71 -498.12 429.53 -430.64 439.82 -401.9 443.94 -416.49 450.39 -469.66 454.61 -542.73 461.16 -614.49 477.81 -668.25 505.38 -686.99 549.7 -666.14 611.2 -610.1 691.31 -529.03 786.23 -438.67 881.61 -353.66 969.56 -287.68 1033.68 -248.16 1061.15 -238.16 1047.11 -253.46 995.05 -285.91 928.89 -329.53 869.98 -371 848.66 -401.82 886.02 -419.15 979.95 -416.36 1107.61 -393.83 1223.49 -353.92 1286.92 -299.44 1270.99 -235.62 1190.25 -164.93 1087.11 -93.41 1023.97 -24.76 1048.17 41.22 1156.98 100.49 1300.16 152.66 1399.24 199.36 1399.3 239.72 1301.28 275.17 1176.09 306.62 1110.01 335.48 1158.02 363.32 1294.68 389.35 1428.49 416.2 1463.52 444.87 1432.47 459.04 1374.61 473.84 1301.31 489.33 1228.3 504.8 1169.76 521.01 1138.16 537.99Q1138.16 537.99 1138.16 537.99" opacity="0.85"></path><path d="M1076.38 556.93C1110.62 588.77 1233.32 618.55 1358.19 645.98 1403.27 673.01 1336.71 696.94 1202.28 717.07 1081.24 735.9 1043.31 749.94 1102.17 758.55 1237.82 760.54 952.72 741.31 1021.92 750.86 1115.24 771.49 1185.25 804.28 1200.74 850.84 1154.21 909.8 1058.64 979.72 944.35 1056.62 838.71 1133.04 768.3 1203.81 741.31 1261.06 756.14 1298.39 797.78 1311.63 847.43 1298.77 894.78 1265.21 921.74 1215.29 923.34 1159.13 901.12 1112.08 856.44 1082.81 797.18 1081.15 726.27 1112.37 653.17 1172.88 583.41 1253.91 514.3 1340.72 453.01 1416.52 399.79 1464.9 349.48 1476.21 305.77 1446.91 267.16 1383.44 229.61 1303.87 195.23 1225.91 163.39 1170.23 131.55 1153.84 103 1178.79 78.52 1236.94 55.1 1314.87 37.7 1390.11 27.96 1444 21.13 1465.62 23.43 1447.67 34.77 1394.56 46.75 1317.24 63.3 1230.54 79.03 1150.39 83.11 1089.65 73.98 1056.67 43.9 1052.98 -9.97 1077.01 -87.69 1118.87 -184.11 1167.65 -282.84 1216.01 -371.88 1251.17 -432.26 1266.87 -450.84 1261.89 -424.15 1234.07 -360.25 1187.11 -287.69 1125.02 -231.87 1054.05 -222.93 980.56 -276.02 907.64 -381.49 841.29 -507.96 784.08 -607.72 736.24 -643.78 699.04 -600.51 671.1 -460.87 633.51 -725.34 602.17 -605.22 584.32 -483.09 571.02 -425.89 553.13 -477.28 530.55 -608.44 507.87 -734.37 480.63 -768.61 448.79 -687.23 416.95 -546.88 381.26 -442.57 341.91 -441.02 302.47 -537.66 259.25 -664.37 212.5 -740.84 165.76 -715.38 115.85 -603.64 63.61 -467.22 12.68 -379.29 -38.81 -378.94 -88.93 -458.77 -134.47 -565.99 -175.17 -639.69 -208.33 -642.27 -232.67 -567.21 -246.23 -447.04 -247.47 -325.99 -239.34 -248.2 -220.39 -232.3 -193.03 -274.99 -165.09 -348.42 -137.85 -418.6 -117.5 -462.04 -112.27 -458.2 -124.19 -408.68 -156.8 -323.31 -210.1 -221.88 -280.7 -123.98 -362.22 -40.25 -444.15 17.14 -516.88 48.12 -569.31 54.68 -594.04 44.69 -587.01 27.36 -549.61 3.47 -492.81 -15.38 -426.84 -25.44 -367.49 -31.33 -332.34 -26.48 -329.58 -12.4 -363.49 5.7 -429.65 30.08 -514.26 58.42 -598.5 87.97 -662.95 119.16 -691.14 151.01 -674.76 182.85 -619.1 214.59 -537.91 247.06 -452.04 280.75 -382.26 317.47 -343.58 359.42 -342.59 405.39 -378.67 459.53 -439.27 523.19 -508.11 591.03 -571.17 666.44 -610.96 745.51 -618.85 818.03 -593.84 881.82 -538.64 927.55 -463.18 948.86 -378.62 942.22 -297.84 907.56 -231.12 831.72 -173.99 780.88 -197.76 886 -247.96 997.91 -283.13 1111.09 -309.33 1191.38 -322.73 1213.08 -323.73 1170.75 -309.13 1082.84 -280.69 995.83 -240.53 951.63 -191.05 982.62 -135.86 1084.71 -75.64 1217.89 -14.73 1321.06 44.53 1344.05 103.68 1276.85 158.97 1158.39 209.9 1064.63 259.06 1054.37 304.02 1143.13 345.23 1282.13 385.16 1388.15 422.34 1392.9 457.33 1294.88 491.93 1157.76 525.08 1076.38 556.93Q1076.38 556.93 1076.38 556.93" opacity="0.39"></path><path d="M1015.13 433.08C1042.51 462.8 1151.44 488.13 1274.13 509.15 1340.09 530.13 1308.92 546.74 1199.65 559.15 1029.55 576.04 1122.45 595.43 1256.53 603.24 1269.88 612.48 1206.27 624.61 1093.37 641.83 973.63 666.72 891.72 699.58 870.26 741.8 909.54 792.66 984.6 852.25 1061.21 918.9 1113.14 987.81 1117.22 1056.85 1072.56 1120.84 988.98 1173.84 887.15 1212.15 788.91 1231.37 708.06 1231.11 657.57 1210.71 637.79 1173.07 646.2 1127.41 672.32 1078.93 704.88 1037.24 740.67 1013.82 766.89 1013.16 779.65 1039.34 781.7 1091.65 769.05 1163.51 744.89 1244.55 712.09 1321.39 673.09 1380.83 631.7 1411.25 587 1407.92 543.78 1370.32 504.1 1305.86 463.82 1230.78 428.44 1159.42 398.72 1108.44 369 1091.77 345.65 1111.21 328.04 1160.85 309.83 1230.9 296.01 1303.22 284.66 1361.94 270 1396.8 253.95 1398.45 232.83 1367.02 203.07 1308.59 162.93 1232.72 109.38 1152.18 45.12 1078.59 -31.32 1022.23 -115.91 988.85 -197.27 981.14 -270.76 995.91 -324.98 1026.97 -351 1069.72 -344.75 1113.14 -306.42 1149.59 -220.19 1180.87 -159.93 1132.12 -267.55 1059.9 -379.25 998.95 -487.41 934.04 -557.63 869.13 -567.12 804.97 -514 745.79 -420.78 692.89 -334.39 645.33 -294.99 604.62 -330.13 569.89 -431.87 540.24 -559.45 514.75 -654.91 491.87 -672.85 471.99 -604.92 452.69 -487.35 432.74 -389.54 414 -367.12 393.31 -438.96 369.98 -567.52 346.91 -679.47 320.65 -706.85 290.93 -632.85 261.21 -502.76 228.74 -394.21 193.92 -368.41 159.36 -435.59 123.01 -552.12 85.7 -652.99 49.6 -678.8 13.84 -616.4 -20.18 -496.04 -51.23 -375.26 -78.52 -306.88 -100.37 -315.92 -117.15 -389.16 -126.66 -485.25 -127.9 -561.14 -123.8 -578.39 -112 -529.8 -93.63 -430.8 -74.53 -314.74 -53.86 -216.57 -35.43 -159.45 -25.96 -153.48 -26.31 -189.03 -40.35 -251.59 -70.91 -314.13 -117.59 -356.87 -179.17 -371.1 -250.71 -349.18 -327.22 -297.02 -400.92 -221.49 -462.93 -135.74 -506.5 -51.22 -525.29 28.33 -518.42 93.51 -486.28 143.21 -434.47 179.28 -375.72 202.67 -319.2 217.89 -277.54 225.24 -262.88 230.75 -278.72 237.94 -325.06 242.93 -395.24 252.75 -476.31 268.72 -552.24 284.45 -607.76 306.99 -630.21 336.71 -613.54 366.43 -562.56 402.63 -488.18 444.78 -407.23 486.7 -336.89 533.92 -290.54 584.97 -275.74 633.84 -294.69 683.38 -339.94 729.95 -400.01 783.35 -490.53 807.81 -539.27 769.57 -476.91 733.85 -408.7 695.47 -331.42 665.75 -254.82 659.4 -186.23 681.71 -132.74 738.46 -97.39 823.72 -81.51 927.07 -82.73 1028.59 -96.78 1103.09 -121.81 1134.21 -150.04 1112.19 -176.43 1007.62 -208.23 903.47 -210.13 1028.89 -178.95 1151.49 -147.38 1248.95 -109.28 1279.77 -67.02 1233.18 -20.71 1131.76 26.82 1028.16 73.9 982.53 122.26 1022.54 168.59 1134.88 212.11 1262.87 255.75 1338.8 296.18 1318.88 333.09 1216.21 369.96 1089.13 403.36 1015.13 433.08Q1015.13 433.08 1015.13 433.08" opacity="0.94"></path><path d="M953.36 279.56C976.4 307.15 1072.58 331.78 1189.43 353.68 1268.9 375.83 1268.71 395.75 1190.48 414.09 1070.84 433.51 964.16 452.47 914.69 472.04 939.62 494.22 1021.01 518.73 1118.1 546.87 1190.41 579.38 1203.79 617.09 1153.32 660.8 1055.49 709.23 943.16 763.39 850.46 822.4 800.34 882.73 801.78 944.12 844.7 1003.45 913.26 1056.26 979.72 1100.58 1023.5 1132.62 1034.92 1150.53 1007.57 1152.44 948.56 1137.85 866.64 1111.1 777.13 1073.45 692.84 1030.14 619.6 990.66 565.98 959.03 532.18 942.17 516.89 946.55 515.85 972.89 522.95 1020.76 538.1 1085.65 552.69 1160.02 563.06 1233.84 574.63 1317.2 558.44 1313.98 533.21 1228.35 513.8 1158.4 490.06 1093.63 462.47 1047.23 434.87 1030.5 404.06 1044.92 369.72 1086.35 334.66 1147.95 294.78 1215.42 249.2 1275.76 201.76 1320.04 147.77 1338.19 87.57 1327.54 27.13 1290.51 -36.47 1231.86 -99.44 1160.56 -154.37 1085.75 -199.96 1017.12 -229.99 962.14 -241.5 925.77 -231.87 909.85 -201.16 912.88 -159.41 933.38 -110.97 964.5 -68.54 1000 -49.01 1037.2 -59.56 1067.92 -107.15 1088.36 -187.1 1098.39 -288 1094.38 -389.15 1077.05 -464.65 1048.15 -496.82 1008.94 -475.43 962.4 -411.47 909.69 -325.89 854.36 -252.67 798.91 -226.82 742.76 -262.69 689.35 -355.22 639.62 -472.54 591.8 -571.9 548.15 -612.4 508.47 -578.51 470.82 -485.01 436.32 -376.02 404.31 -308.43 373.46 -316.37 344.09 -401.29 315.68 -523.61 287.58 -622.58 259.81 -645.62 232.21 -580.44 204.62 -461.75 177.84 -351.43 152.19 -303.68 126.85 -338.73 103.25 -434.18 82.06 -543.43 62.02 -610.12 45.39 -603.59 32.98 -526.54 22.59 -410.7 17.22 -302.52 17.22 -240.37 19.12 -242.93 25.9 -300.32 36.74 -426.69 52.54 -459.31 71.46 -331.79 59.94 -226.54 37.79 -137.8 3.91 -81.34 -42.29 -63.28 -98.89 -80.15 -164.06 -119.59 -233.85 -172.2 -301.94 -219.53 -363.78 -250.98 -413.02 -263.97 -444.78 -252.74 -455.61 -220.69 -443.85 -171.13 -413.48 -110.42 -367.34 -45.29 -312.76 23.84 -261.7 89.19 -221.01 148.18 -199.56 204.27 -204.48 252.81 -235.81 294.66 -290.74 333.71 -361.72 368.07 -437.32 399.18 -504.37 429.42 -551.26 458.07 -568.48 485.66 -551.75 513.26 -505.35 539.16 -437.78 562.67 -362.38 611.51 -249.64 606.58 -379.7 577.1 -452.57 559.8 -480.21 545.72 -484.06 541.48 -463.82 554.74 -422.34 587.5 -363.97 643.02 -295.75 717 -223.72 805.41 -155.34 897.5 -96 1002.84 -14.83 822.49 -43.65 821.51 -71.6 889.01 -88.07 993.62 -98.25 1105.67 -101.37 1187.67 -99.76 1212.72 -90.84 1170.81 -75.52 1082.85 -55.84 984.98 -31.33 923.5 -3.44 932.54 27.04 1012.42 59.21 1132.31 91.84 1238.41 125.55 1281.59 158.59 1239.3 190.19 1134.43 222.05 1018.54 251.96 953.36 279.56Q953.36 279.56 953.36 279.56" opacity="0.87"></path><path d="M891.88 234.85C909.97 260.32 992.92 286.28 1101.46 312.82 1189.53 339.64 1216.75 367.55 1173 396.99 1076.35 427.39 964.74 460.13 879.59 495.72 849.28 532.98 879.98 573.74 954.09 618.16 1044.06 664.16 1113 713.45 1137.04 765.29 1108.77 816.67 1034.87 868.38 936.79 918.4 837.38 963.59 761 1003.24 720.81 1034.74 720.72 1056.55 753.66 1067.09 805.25 1065.1 864.16 1052.79 911.62 1029.51 937.6 997.46 939.44 963.01 914.28 927.73 867.51 896.76 803.59 877.24 731.58 871.19 659.14 882.09 587.88 911.79 525.39 958.49 473.34 1018.92 429.77 1087.01 396.28 1155.75 370.47 1216.73 351.02 1262.35 335.38 1286.34 320.91 1284.75 309.05 1259.19 295.49 1211.98 278.73 1150.23 262.5 1085.94 241.93 1027.69 216.45 985.73 190.98 969.11 161.21 979.01 127.82 1012.63 94.96 1065.45 59.63 1126.51 23.45 1185.55 -10.11 1235.31 -41.67 1266.06 -68.43 1273.59 -88.84 1257.94 -100.59 1220.02 -101.17 1165.15 -93.26 1099.59 -73.83 1030.83 -44.4 966.05 -13.78 910.62 17.61 869.13 42.27 843.45 49.78 834.52 37.02 840.02 -1.25 856.58 -63.69 882.82 -146.13 912.37 -238.43 941.03 -369.89 989.44 -190.95 942.97 -160.8 891.93 -207.56 851.46 -297.26 808.52 -405.9 764.8 -498.69 719.32 -545.97 674.87 -530.04 632.35 -459.27 589.67 -359.82 549.56 -273 512.35 -239.08 475.38 -273.8 441.25 -366.9 410.06 -480.48 378.97 -566.02 350.62 -584.11 325.15 -526.52 299.67 -419.57 277.67 -311.44 259.14 -247.78 240.72 -253.19 225.95 -320.84 214.89 -466.34 200.51 -489.94 189.34 -344.02 190.27 -210.82 189.79 -238.62 177.3 -348.5 156.37 -408.05 132.77 -430.57 101.25 -410.63 61.05 -352.37 13.21 -268.43 -41.96 -176.34 -102.62 -89.35 -164.67 -22.57 -226.02 18.09 -282.34 31.46 -328.98 21.48 -362.86 -3.63 -380.46 -40.06 -381.3 -75.85 -364.51 -104.45 -331.79 -126.25 -289.74 -134.4 -241.74 -129.38 -194.86 -114.09 -158.65 -88.52 -137.31 -56.12 -136.03 -17.83 -157.93 22.79 -200.84 63.05 -260.43 105.22 -329.29 144.59 -397.85 179.87 -455.72 215.45 -494.38 246.24 -506.87 271.72 -490.26 297.19 -448.31 316.74 -387.48 330.78 -318.16 345.12 -251.36 354.64 -196.65 360.51 -161.25 368.29 -149.82 374.85 -161.64 382.78 -192.88 396.6 -239.48 416.28 -291.64 445.13 -341.06 484.25 -382.82 535.45 -408.76 599.08 -415.75 669.51 -403.93 745.91 -373.19 821.6 -327.15 885.98 -269.65 933.87 -206.01 956.96 -141.48 952.74 -79.35 920.94 -24.27 867.34 21.42 782.56 69.02 763.89 99.96 875.41 93.16 977.04 82.4 1071.28 71.3 1131.91 61.75 1141.84 51.74 1098.4 45.49 1015.98 43.65 928.03 43.36 866.01 47.85 858.17 56.81 913.24 67.43 1014.25 81.88 1125.16 99.53 1202.65 118.13 1215.55 139.11 1156.93 161.91 1053.83 184.99 949.47 209.38 891.88 234.85Q891.88 234.85 891.88 234.85" opacity="0.17"></path><path d="M830.37 339.73C844.05 363.08 914.17 389.18 1012.2 417.88 1103.2 446.66 1151.55 478.16 1141.01 512.26 1076.06 546.49 978.18 583.31 879.21 622.39 807.94 661.24 783.77 701.8 808.68 743.28 872.87 783.24 951.89 822.66 1020.64 860.15 1061.61 893.76 1060.76 923.2 1019.18 946.8 945.54 963.93 856.08 973.28 768.53 973.84 695.71 967.33 649.35 952.42 632.01 929.97 642.72 904.39 673.57 875.47 714.54 846.31 779.63 813.96 832.76 814.2 808.59 858.62 774.28 905.93 730.28 963.21 681.04 1026.09 626.6 1088.68 572.57 1145.38 521.46 1189.98 470.34 1217.95 424.07 1225.63 383.01 1211.57 343.03 1178.94 307.83 1130.31 276.98 1071.94 246.58 1013.71 219.75 961.89 196.4 924.24 173.05 907.94 153.72 913.86 138.65 940.19 124.01 984.2 114.4 1037.69 110.33 1092.89 108.86 1163.8 134.14 1200.12 154.4 1157.19 163.17 1108.49 167.71 1050.27 163.68 988.15 146.57 926.66 115.22 870.97 67.52 824.55 6.37 789.55 -66.79 767.12 -146.08 756.67 -220.46 758.16 -283.38 768.45 -324.7 784.68 -337.96 806.58 -320.75 829.2 -275.5 849.99 -215.52 869.82 -152.06 884.38 -102.73 892.79 -85.47 896.81 -107.25 893.99 -169.05 884.9 -258.62 871.24 -356.67 852.4 -437.98 829.59 -480.01 803.61 -471.04 775.2 -412.95 745.51 -327.15 714.18 -240.43 682.79 -184.49 652.14 -182.96 620.87 -238.18 591.03 -333.8 563.12 -436.45 535.08 -508.94 509.25 -522.62 485.89 -472.3 462.54 -377.43 442.23 -274.45 424.78 -200.23 407.21 -179.75 392.23 -216.6 379.45 -296.82 366.06 -388.54 354.2 -459.45 343.16 -487.83 330.48 -462.44 317.42 -391.99 302.93 -295.69 285.28 -200.14 264.66 -128.59 239.98 -95.43 210.74 -104.51 176.33 -147.2 136.33 -211.63 91.93 -276.58 42.61 -325.51 -10.62 -349.68 -64.82 -341.16 -119.5 -302.7 -172.01 -239.9 -218.85 -163.31 -258.29 -84.03 -287.35 -8.35 -304.49 54.03 -308.06 99.8 -297.37 128.65 -275.27 141.14 -242.21 141.28 -201.55 130.12 -160.26 114.25 -121.06 98.03 -89.48 79.59 -72.02 65.8 -70.49 58.09 -87.07 52.3 -122.04 53.24 -172.14 60.31 -232.58 69.21 -296.79 82.96 -357.16 100.58 -405.79 118.79 -436.75 139.77 -445.05 163.12 -428.75 186.47 -391.11 211.64 -336.92 238.92 -274.08 266.78 -211.09 297.84 -155.58 332.98 -113.93 369.95 -90.86 412.27 -87.38 460.43 -102.16 510.51 -133.58 565.77 -175.08 624.67 -220.55 681.37 -266.31 736.69 -304.57 786.2 -331.06 824.4 -344.62 849.14 -342.06 856.27 -324 846.49 -292.3 818.86 -249 776.59 -197.73 730.72 -140.99 686.19 -82.94 654 -26.75 646.15 26.3 666.77 73.28 718.52 113.2 795.02 146.05 885.97 171.46 974.72 190.32 1041.72 202.72 1073.42 210.51 1061.09 215.24 1010.37 216.09 933.85 216.13 854.67 216.64 801.34 215.63 791.15 216.54 832.7 220.06 916.79 223.34 1019.66 229.78 1108.9 239.59 1154.76 249.52 1141.16 262.84 1071.55 279.55 973.19 296.33 880.69 316.38 830.37 339.73Q830.37 339.73 830.37 339.73" opacity="0.95"></path><path d="M768.87 499.19C778.62 520.42 836.43 543.76 922.34 568.95 1011.14 594.02 1073.46 620.69 1091.45 648.52 1061.19 675.8 990.61 703.66 899.65 731.39 810.72 757.73 745.75 782.95 717.66 806.11 730.49 826.65 776.63 843.85 841.21 856.73 936.87 867.67 968.74 855.55 891.03 832.86 815.11 814.32 735.72 792.91 663.26 770.44 565.67 734.68 622.09 796.88 662.03 865.04 683.96 919.39 697.01 976.73 700.99 1032.86 698.73 1083.21 688.39 1123.86 671.85 1150.8 650.88 1162.09 626.35 1155.92 600.17 1132.45 572.08 1095.55 544.32 1047.55 518.12 993.65 491.48 941.76 467.28 896.2 446.05 862.74 424.83 846.95 407.07 849.44 392.36 869.11 377.21 904.5 364.23 949.68 352.29 999.01 338.43 1048.71 323.64 1091.44 306.09 1122.82 284.12 1141.22 256.75 1143.39 222.22 1129.52 181.45 1101.42 132.53 1060.94 75.75 1011.71 15.79 956.91 -47.71 900.65 -110.59 846.55 -165.79 796.84 -210.75 754.36 -239.71 720.42 -249.52 695.68 -238.3 680.05 -206.47 672.53 -161.83 673.15 -108.93 679.31 -58.09 689.09 -23.26 703.02 -11.24 717.42 -29.34 730.73 -78.33 744.45 -152.54 755.07 -240.31 761.92 -355.55 767.64 -377.56 755.17 -275.04 738.51 -196.05 724.88 -135.62 708.81 -113.54 690.89 -139.73 672.24 -208.3 652.42 -301.3 631.87 -391.41 611.13 -451.37 590.05 -461.12 568.82 -417.67 547.59 -334.96 526.72 -239.71 506.11 -160.31 485.31 -119.44 464.39 -126.39 443 -177.92 420.89 -255.57 397.64 -335.51 372.75 -397.4 346.42 -422.11 317.68 -404.14 286.11 -348.04 252.56 -266.69 215.75 -178.36 175.65 -99.27 133.94 -44.63 89.48 -21.2 43.04 -30.23 -2.98 -65.03 -48.98 -114.72 -93.28 -171.03 -133.43 -219.46 -168.75 -251.58 -197.19 -264.6 -217.49 -254.44 -228.37 -223.78 -228.7 -175.79 -219.82 -116.49 -200.99 -52.38 -173.38 14.25 -141.39 76.32 -105.7 130.85 -69.83 178.61 -39.53 216.64 -16.35 245.96 -3.81 268 -5.49 283.84 -21.47 295.81 -51.86 303.63 -95.2 310.59 -148.08 318.49 -205.96 324.89 -263.48 333.97 -314.91 346.66 -354.51 359.06 -378.38 375.69 -383.03 396.92 -367.25 418.15 -333.8 443.47 -286.09 472.42 -230 501.07 -171.9 532.74 -117.65 566.37 -72.55 598.51 -40.88 630.87 -24.57 661.57 -23.88 688.12 -38.84 709.98 -65.66 724.73 -100.45 732.2 -141.02 730.04 -181.06 717.14 -216.48 697.47 -245.95 669.23 -264.89 635.31 -271.98 603.91 -267.85 576.22 -251.63 558.59 -224.83 558.31 -189.06 577.3 -146.35 618.15 -99.29 678.09 -49 753.01 1.54 834.39 50.46 909.15 97.68 967.59 140.96 998.72 179.72 997.39 214.56 963.32 244.65 903.17 270.43 833.78 292.41 769.73 311.09 729.19 327.34 726.77 340.98 765.31 353.46 839.18 365.63 931.1 376.41 1018.89 387.88 1078.61 400.63 1093.75 412.84 1059.13 426.91 983.93 443.19 892.87 459.35 812.32 477.97 768.87 499.19Q768.87 499.19 768.87 499.19" opacity="0.86"></path><path d="M707.38 568.79C713.69 587.89 759.93 606.62 832.72 624.82 914.9 642.87 983.84 660.07 1023.1 676.09 1024.98 691.53 988.19 705.24 921.96 716.77 839.93 727.14 759.25 734.72 694.98 739.08 657.29 741.87 650.99 741.06 673.42 736.54 719.45 730.63 776.59 721.33 832.92 709.05 895.18 689.86 879.47 652.28 807.17 641.33 743 641.3 675.94 647.17 612.08 660.14 553.76 681.19 506.21 710.05 470.52 746.53 446.25 789.31 433.01 837.21 428.33 888.07 431.86 938.85 439.6 987.19 448.79 1029.87 466.29 1075.68 487.28 1086.15 486.84 1048.14 484.43 1009.66 477.54 964.09 466.36 915.54 454.95 870.13 439.65 830.64 420.55 801.23 401.44 786.16 378.98 785.78 353.18 799.49 327.14 826.71 297.37 863.26 263.74 905.27 229.57 950.38 191.35 992.81 149.44 1028.85 107.65 1057.11 63.3 1073.77 17.9 1077.86 -24.39 1070.05 -64.41 1050.07 -99.32 1019.69 -126.01 980.84 -143.22 935.86 -148.4 887.54 -142.16 837.6 -123.04 788.93 -92.05 743.51 -55.53 702.14 -14.71 666.49 24.41 637.02 52.68 613.83 66.81 596.78 61.14 585.13 32.77 578.99 -17.21 576.7 -85 577.05 -161.23 580.8 -236.88 585.41 -299.95 589.85 -339.43 595.68 -348.69 600.06 -325.01 602.42 -274.74 604.93 -206.51 604.85 -135.26 601.97 -79.81 598.81 -52.15 592.81 -61.39 583.99 -108.03 574.92 -182.6 563.22 -268.56 548.97 -345.13 534.63 -393.3 517.91 -399.61 498.8 -362.6 479.7 -291.93 458.67 -206.43 435.79 -126.93 412.83 -72.23 387.87 -53.54 360.91 -74.06 333.69 -126.04 304.3 -195.28 272.8 -267.38 241.02 -323.74 207.17 -352.63 171.54 -349.5 136.08 -313.9 99.4 -253.37 62.2 -177.5 26.4 -99.47 -8.66 -30.76 -41.86 21.02 -71.66 49.86 -97.81 55.51 -119 39.21 -134.69 7.46 -143.88 -32.38 -145.73 -76.66 -141.31 -115.86 -129.51 -145.11 -110.7 -163.94 -87.83 -168.11 -60.44 -158.42 -30.4 -136.59 -1.97 -104.29 24.49 -64.88 46.3 -19.08 59.64 28.81 64.06 76.2 57.87 124.6 39.78 169.78 10.68 210.88 -28.35 250.8 -75.16 286.34 -126.71 317.72 -179.2 348.01 -228.58 374.91 -270.76 398.85 -301.77 422.44 -319.26 443.73 -320.83 462.83 -305.76 481.94 -276.35 498.41 -234.94 512.03 -185.75 525.3 -133.42 535.08 -82.22 540.81 -36.36 536.7 24.52 485 -35.17 462.76 -85.29 454.73 -119.11 452.88 -148.49 460.5 -171.39 480.26 -187.97 512.86 -195.56 559.03 -194.06 615.62 -184.47 681.04 -166.49 750.37 -141.42 815.26 -110.25 870.86 -74.4 909.71 -35.52 926.63 6.11 919.07 48.4 887.16 90.11 838.35 131.84 778.83 171.6 720 208.87 676.52 244.77 656.48 277.86 667.36 308.19 710.26 336.94 779.05 363.29 861.94 387.58 941.96 410.72 1003.07 432.4 1030.96 452.99 1019.64 473.01 970.56 492.47 894.84 511.64 813.12 530.65 744.39 549.68 707.38 568.79Q707.38 568.79 707.38 568.79" opacity="0.95"></path><path d="M645.87 485.49C686.42 519.45 818.46 544.39 936.89 560.13 960.41 575.19 869.27 580.21 726.84 575.77 612.3 571.96 582.3 562.06 631.97 550.95 727.71 549.87 806.85 558.19 833.28 583.08 801.64 628.98 721.08 695.49 621 778.83 515.12 867.28 427.54 949.75 363.09 1009.24 315.29 1034.26 283 1017.1 256.55 959.64 235.18 881.93 209.55 800.22 175.58 739.74 141.61 723.82 100.92 752.38 58.23 813.03 20.64 891.68 -8.85 960.43 -19.91 1001.51 -14.33 1009.82 17.3 979.68 70.84 919.97 118.57 840.6 150.37 754.8 137.49 674.39 66.54 603.35 -52.86 548.14 -183.97 508.02 -269 481.4 -269.46 463.92 -179.82 450.11 -62.28 441.99 9.51 431.01 -27.1 413.91 -158.64 397.76 -297.57 373.25 -338.12 339.29 -248.24 305.33 -98.37 263.51 0.55 215.61 -14.89 168.66 -121.01 117.84 -235.38 67.11 -288.52 22.05 -242.33 -16.4 -127.25 -42.13 6.66 -54.37 102.81 -47.92 138.87 -21.4 116.37 14.49 62.59 60.01 8.79 104.02 -36.91 128.36 -51.93 128.05 -39.1 94.85 -7.47 28.89 37.99 -59.19 85.81 -150.95 137.86 -224.71 183.02 -260.16 216.99 -244.25 250.95 -183.78 272.12 -95.19 284.12 -4.36 300.35 66.2 316.67 102.7 343.91 102.59 389.94 67.99 460.89 15.99 558.95 -37.09 665.1 -85.06 767.65 -111.31 834.66 -112.7 843.12 -93.07 787.24 -52.64 688.68 0.78 608.97 64.24 593.24 130.07 671.28 192.74 810.55 256.05 935.99 312.81 964.56 361.82 878.73 410.14 735.75 451.52 645.87 485.49Q645.87 485.49 645.87 485.49" opacity="0.27"></path><path d="M584.37 324.74C612.8 354.45 719.2 376.21 835.67 390.97 900.79 406.54 875.34 416.93 777.51 424.7 651.38 436.87 551.24 451.31 508.09 472.18 527.6 503.5 587.85 546.44 656.06 602.62 715.7 668.77 740.55 743.52 729.56 819.87 689.47 887.73 629 939.71 562.53 965.65 489.6 962.86 424.07 928.64 370.14 868.04 317.08 798.13 275.48 729.22 245.76 678.24 216.04 661.57 199.61 679.05 196.62 723.51 194.5 787.7 205.97 852.26 227.39 903.33 242.36 936.26 253.89 940.93 248.18 918.83 213.36 874.89 145.84 814.45 47.25 746.46 -59.91 674.35 -155.39 606.15 -205.85 545.77 -193.64 491.28 -120.16 445.82 -15.81 407.92 60.22 374.93 68.75 345.82 -7.83 318.17 -135.76 291.97 -248.19 264.48 -276.62 234.76 -203.51 205.04 -73.67 174.5 36.57 144.65 71.19 116.25 20.62 91.3 -76.88 72.78 -174.29 59.17 -217.66 55.69 -192.18 64.38 -109.11 78.95 1.45 104.48 105.06 137.63 204.92 179.28 203.4 180.38 167.63 110.01 143.89 37.15 134.31 -44.31 139.5 -119.97 146.94 -175.91 166.21 -199.41 195.92 -182.76 225.64 -131.79 264.4 -56.86 313.01 24.51 363.87 96.59 427.51 147.73 502.75 172.32 576.68 168.16 652.3 142.84 715.81 105.93 752.58 60.52 754.33 21.01 713.9 -6.17 611.57 -23.54 562.23 32.97 716.42 89.55 835.72 133.28 903.22 176.96 880.1 217.43 781.33 258.73 657.52 295 584.38 324.73Q584.37 324.74 584.37 324.74" opacity="0.43"></path><path d="M522.88 232.15C540.97 257.62 621.36 281.82 723.98 305.35 809.32 329.95 838.19 355.91 803.6 384.89 719.39 417.46 614.3 455.81 519.89 501.13 454.64 551.24 430.09 608.3 439.91 670.21 477.94 731.46 524.42 790.8 564.96 842.04 609.23 889.68 597.74 853.69 561.19 774.58 532.12 714.87 503.45 658.69 477.97 616.73 452.5 600.11 431.43 608.43 412.45 637.9 390.54 685.7 365.05 739.35 330.64 789.44 286.45 833.33 227.23 860.64 152.34 869.16 72.54 861.46 -10.5 836.44 -81.92 798.66 -125.13 750.96 -130.78 697.92 -92.06 644.2 -24.17 588.74 58.06 536.77 123.6 490.05 139.52 444.53 96.14 404.34 0.98 369.49 -111.46 335.3 -197.02 305.37 -215.11 279.9 -157.52 254.42 -50.65 234.61 57.25 220.75 124.98 207.55 130.6 201.41 81.66 202.77 -2.4 205.35 -82.92 215.36 -132.45 231.56 -141.71 246.03 -105.72 262.49 -38.71 276.81 47.86 281.2 134.6 276.02 209.21 257.2 271.68 222.16 315.59 172.01 345.14 109.45 364 40.69 377.41 -27.45 391.38 -85.08 402.79 -124.39 420.08 -137.88 445.55 -121.27 471.03 -79.31 503.48 -17.98 540.12 51.56 574.18 119.16 607.12 176.34 632.41 217.17 647 238.29 645.04 241.26 621.84 230.08 586.49 205.37 536.32 176.23 483.13 148.37 449.51 119.84 443.72 99.36 479.5 88.51 555.55 82.45 658.92 86.05 761.66 97.62 829.28 112.79 838.16 133.18 780.26 156.62 682.17 181.12 580.47 206.67 522.88 232.15Q522.88 232.15 522.88 232.15" opacity="0.17"></path><path d="M461.46 291.51C470.93 312.73 526.52 338.02 607.14 367.07 691.79 396.53 751.4 430.44 771.58 468.6 751.02 507.56 694.33 550.83 617.35 597.21 532.22 642.8 455.84 689.15 397.4 733.32 352.73 808.28 396.15 752.24 398.88 680.51 397.34 632.45 386.15 588.59 364.92 555.13 343.7 539.34 313.43 540.6 274.94 557.12 236.24 588.52 189.48 627.4 136.99 668.17 87.28 710.26 37.29 745.38 -6.2 770.48 -36.03 787.57 -48.51 792.29 -37.46 785.73 -6.84 770.73 44.36 747.28 107.39 718.29 162.26 684.67 199.91 649.01 204.91 613.8 169.17 577.1 97.48 542.74 4.63 512.18 -84.17 481.41 -144.06 454.96 -153.53 433.73 -109.82 412.5 -27.01 397.5 67.37 388.24 170.91 376.63 135.96 373.18 44.44 374.44 -14.29 370.7 -51.32 363.68 -62.4 350.86 -50.44 329.59 -16.81 299.71 29.84 260.51 86.98 213.3 145.22 159.15 198.86 101.5 252.56 45.17 298.33 -5.78 335.42 -45.38 371.56 -70.09 400.31 -75.65 421.54 -59.86 442.77 -26.4 455.47 21.75 459.36 78 462.31 136.38 455.15 191.55 438.24 238.79 409.75 287.68 358.17 312.01 372.46 298.45 411.36 282.11 473.56 266.22 554.4 253.36 639.21 239.69 715.9 231.39 765.7 229.21 776.18 227.84 742.19 232.55 669.88 243.13 583.67 254.11 505.17 270.28 461.46 291.51Q461.46 291.51 461.46 291.51" opacity="0.99"></path><path d="M399.95 449.16C440.15 483.13 564.94 533.09 671.37 592.13 702.96 647.3 637.42 702.12 527.24 741.78 405.36 760.02 313.84 746.21 256.66 695.87 217.32 630.21 187.64 554.13 153.67 493.65 119.71 477.73 84.67 501.56 65.15 549.25 63.47 614.04 101.98 666.1 179.34 693.42 245.01 705.5 274.52 692.54 218.03 664.3 86.71 629.27 -51.84 590.99 -92.04 557.02 -1.87 523.06 148.07 496.63 251.1 472.79 259.46 442.18 193.54 402.12 116.44 345.53 49.73 273.68 33.67 185.6 55.31 95.91 95.9 23.33 142.19 -14.26 176.15 1.65 210.12 62.13 228.55 151.97 246.83 242.54 284.04 317.77 353.11 367.61 464.34 393.88 636.93 397.84 558.21 407.82 399.95 449.16Q399.95 449.16 399.95 449.16" opacity="0.18"></path><path d="M338.38 562.26C356.47 587.73 431.75 615.37 521.11 640.6 599.72 662.01 630.82 674.21 616.11 671.02 568.24 657.69 502.95 625.28 442.2 576.13 378.26 526.22 330.44 474.19 304.96 432.23 279.49 415.61 278.78 420.77 298.57 441.76 315.17 478.84 340.71 516.1 355.18 544.72 336.51 572.3 278.39 585.31 181.11 583.53 73.07 579.21 -12.52 563.53 -30.61 538.05 26.97 512.58 133.66 479.73 239.07 439.9 313.7 397.54 340.66 344.77 331.87 283.8 294.59 221.8 257.21 157.52 236.82 101.77 217.15 62.1 219.62 46.61 245.09 63.22 270.56 105.18 316.63 167.53 380.45 236.12 444.98 303.94 522.13 363.37 592.79 410.09 634.97 446.68 635.03 474.23 579.07 496.97 492.33 515.88 395.97 536.78 338.38 562.26Q338.38 562.26 338.38 562.26" opacity="0.50"></path><path d="M276.87 528.29C317.42 562.25 428.13 565.63 501.71 533.82 542.02 496.04 522.96 431.22 488.99 370.74 455.02 354.82 412.58 369.27 327.75 389.21 209.66 421.62 71.42 427.91 30.87 393.94 120.77 359.97 270.79 292.18 371.92 215.26 424.27 150.8 443.74 108.82 477.71 124.74 511.68 185.22 553.71 277.57 545.87 359.87 489.26 436.19 366.77 494.32 276.87 528.29Q276.87 528.29 276.87 528.29" opacity="0.79"></path></g></svg>