<?xml version="1.0" standalone="no"?>
<!DOCTYPE svg PUBLIC "-//W3C//DTD SVG 20010904//EN"
 "http://www.w3.org/TR/2001/REC-SVG-20010904/DTD/svg10.dtd">
<svg version="1.0" xmlns="http://www.w3.org/2000/svg"
 width="144.000000pt" height="144.000000pt" viewBox="0 0 144.000000 144.000000"
 preserveAspectRatio="xMidYMid meet">
<metadata>
Created by potrace 1.14, written by Peter Selinger 2001-2017
</metadata>
<g transform="translate(0.000000,144.000000) scale(0.100000,-0.100000)"
fill="#000000" stroke="none">
<path d="M619 1348 c-13 -5 -51 -9 -84 -9 -57 0 -61 -2 -89 -37 -17 -20 -54
-53 -84 -72 -61 -40 -100 -69 -116 -88 -6 -7 -35 -36 -63 -64 -49 -47 -53 -54
-52 -97 1 -25 -8 -73 -19 -106 -28 -81 -32 -106 -34 -206 -1 -67 2 -93 15
-113 10 -14 22 -26 27 -26 6 0 10 -7 10 -15 0 -8 5 -15 10 -15 6 0 10 -6 10
-14 0 -8 14 -41 31 -73 17 -32 36 -68 43 -80 6 -13 14 -23 19 -23 4 0 7 -6 7
-13 0 -20 51 -65 84 -73 16 -4 54 -23 85 -44 52 -34 89 -49 228 -94 50 -16 54
-16 95 2 48 22 70 29 112 36 16 3 54 10 85 16 31 7 65 13 76 16 20 3 178 154
263 250 37 43 42 54 41 94 -1 25 3 63 9 85 18 67 24 106 26 197 3 87 -9 133
-41 166 -7 7 -34 57 -60 111 -50 101 -69 121 -165 175 -26 15 -66 45 -89 67
-34 34 -49 41 -79 41 -20 0 -40 -2 -46 -3 -5 -2 -31 1 -59 5 -72 13 -168 14
-196 4z m163 -282 c131 -66 186 -103 263 -177 55 -53 59 -61 61 -106 1 -26 -1
-52 -4 -58 -4 -5 -8 -18 -9 -27 -3 -20 -53 -133 -91 -204 -49 -92 -103 -157
-144 -173 -16 -6 -28 -7 -28 -2 0 5 -8 8 -17 7 -38 -6 -260 94 -360 162 -111
75 -148 142 -122 219 7 21 14 40 14 43 15 58 108 229 157 290 55 67 96 92 143
84 17 -3 78 -29 137 -58z"/>
</g>
</svg>
